<mxfile host="app.diagrams.net" agent="Mozilla/5.0 (Windows NT 10.0; Win64; x64) AppleWebKit/537.36 (KHTML, like Gecko) Chrome/138.0.0.0 Safari/537.36" version="28.0.7">
  <diagram name="第 1 页" id="uxBjInjnFFcFNWXTBmHs">
    <mxGraphModel grid="0" page="1" gridSize="10" guides="1" tooltips="1" connect="1" arrows="1" fold="1" pageScale="1" pageWidth="827" pageHeight="1169" background="none" math="0" shadow="0">
      <root>
        <mxCell id="0" />
        <mxCell id="1" parent="0" />
        <mxCell id="kQ3vYmZmV89KcB6vO9J0-388" value="" style="rounded=0;whiteSpace=wrap;html=1;strokeColor=#000000;" vertex="1" parent="1">
          <mxGeometry x="79.23" y="2027.5" width="600" height="169.5" as="geometry" />
        </mxCell>
        <mxCell id="kQ3vYmZmV89KcB6vO9J0-347" value="" style="rounded=0;whiteSpace=wrap;html=1;" vertex="1" parent="1">
          <mxGeometry x="1169.37" y="1294" width="420" height="190" as="geometry" />
        </mxCell>
        <mxCell id="kQ3vYmZmV89KcB6vO9J0-344" value="" style="rounded=1;whiteSpace=wrap;html=1;fontSize=24;strokeWidth=2;fillColor=none;dashed=1;" vertex="1" parent="1">
          <mxGeometry x="1390.9899999999998" y="1324" width="60" height="140" as="geometry" />
        </mxCell>
        <mxCell id="digXNZdUGkVrMZ4BqyaZ-743" value="" style="rounded=0;whiteSpace=wrap;html=1;" vertex="1" parent="1">
          <mxGeometry x="55" y="1779" width="490" height="226" as="geometry" />
        </mxCell>
        <mxCell id="kQ3vYmZmV89KcB6vO9J0-315" value="" style="rounded=0;whiteSpace=wrap;html=1;" vertex="1" parent="1">
          <mxGeometry x="170" y="1290" width="350" height="465" as="geometry" />
        </mxCell>
        <mxCell id="digXNZdUGkVrMZ4BqyaZ-2" value="" style="verticalAlign=top;align=left;spacingTop=8;spacingLeft=2;spacingRight=12;shape=cube;size=10;direction=south;fontStyle=4;html=1;whiteSpace=wrap;movable=1;resizable=1;rotatable=1;deletable=1;editable=1;locked=0;connectable=1;container=0;fillColor=#6A8CAF;strokeColor=#000000;" vertex="1" parent="1">
          <mxGeometry x="357" y="1946" width="40" height="40" as="geometry" />
        </mxCell>
        <mxCell id="digXNZdUGkVrMZ4BqyaZ-3" value="" style="verticalAlign=top;align=left;spacingTop=8;spacingLeft=2;spacingRight=12;shape=cube;size=10;direction=south;fontStyle=4;html=1;whiteSpace=wrap;movable=1;resizable=1;rotatable=1;deletable=1;editable=1;locked=0;connectable=1;container=0;fillColor=#6A8CAF;strokeColor=#000000;" vertex="1" parent="1">
          <mxGeometry x="119.74000000000001" y="1946" width="40" height="40" as="geometry" />
        </mxCell>
        <mxCell id="YeaHek69Ytw8NYJ7rFM1-143" value="Adaptive Sparse&#xa;Self-Attention" style="verticalAlign=middle;align=center;spacingTop=8;spacingLeft=2;spacingRight=12;shape=cube;size=10;direction=south;fontStyle=2;whiteSpace=wrap;movable=1;resizable=1;rotatable=1;deletable=1;editable=1;locked=0;connectable=1;container=0;fillStyle=solid;fontFamily=Tahoma;textDirection=ltr;fontSize=24;" vertex="1" parent="1">
          <mxGeometry x="69.74000000000001" y="1851" width="230" height="75" as="geometry" />
        </mxCell>
        <mxCell id="YeaHek69Ytw8NYJ7rFM1-152" value="" style="edgeStyle=none;curved=1;rounded=0;orthogonalLoop=1;jettySize=auto;html=1;fontSize=12;startSize=8;endSize=8;" edge="1" parent="1">
          <mxGeometry relative="1" as="geometry">
            <mxPoint x="169.67000000000002" y="1926" as="targetPoint" />
            <mxPoint x="169.67000000000002" y="1946" as="sourcePoint" />
          </mxGeometry>
        </mxCell>
        <mxCell id="YeaHek69Ytw8NYJ7rFM1-153" value="" style="edgeStyle=none;curved=1;rounded=0;orthogonalLoop=1;jettySize=auto;html=1;fontSize=12;startSize=8;endSize=8;" edge="1" parent="1">
          <mxGeometry relative="1" as="geometry">
            <mxPoint x="199.67000000000002" y="1946" as="sourcePoint" />
            <mxPoint x="199.67000000000002" y="1926" as="targetPoint" />
          </mxGeometry>
        </mxCell>
        <mxCell id="YeaHek69Ytw8NYJ7rFM1-154" value="" style="edgeStyle=none;curved=1;rounded=0;orthogonalLoop=1;jettySize=auto;html=1;fontSize=12;startSize=8;endSize=8;" edge="1" parent="1">
          <mxGeometry relative="1" as="geometry">
            <mxPoint x="229.67000000000002" y="1946" as="sourcePoint" />
            <mxPoint x="229.67000000000002" y="1926" as="targetPoint" />
          </mxGeometry>
        </mxCell>
        <mxCell id="YeaHek69Ytw8NYJ7rFM1-158" value="Adaptive Sparse&#xa;Self-Attention" style="verticalAlign=middle;align=center;spacingTop=8;spacingLeft=2;spacingRight=12;shape=cube;size=10;direction=south;fontStyle=2;whiteSpace=wrap;movable=1;resizable=1;rotatable=1;deletable=1;editable=1;locked=0;connectable=1;container=0;fillStyle=solid;fontFamily=Tahoma;textDirection=ltr;fontSize=24;" vertex="1" parent="1">
          <mxGeometry x="307" y="1851" width="230" height="75" as="geometry" />
        </mxCell>
        <mxCell id="YeaHek69Ytw8NYJ7rFM1-159" value="" style="edgeStyle=none;curved=1;rounded=0;orthogonalLoop=1;jettySize=auto;html=1;fontSize=12;startSize=8;endSize=8;" edge="1" parent="1">
          <mxGeometry relative="1" as="geometry">
            <mxPoint x="406.25" y="1946" as="sourcePoint" />
            <mxPoint x="406.25" y="1926" as="targetPoint" />
          </mxGeometry>
        </mxCell>
        <mxCell id="YeaHek69Ytw8NYJ7rFM1-160" value="" style="edgeStyle=none;curved=1;rounded=0;orthogonalLoop=1;jettySize=auto;html=1;fontSize=12;startSize=8;endSize=8;" edge="1" parent="1">
          <mxGeometry relative="1" as="geometry">
            <mxPoint x="436.25" y="1946" as="sourcePoint" />
            <mxPoint x="436.25" y="1926" as="targetPoint" />
          </mxGeometry>
        </mxCell>
        <mxCell id="YeaHek69Ytw8NYJ7rFM1-161" value="" style="edgeStyle=none;curved=1;rounded=0;orthogonalLoop=1;jettySize=auto;html=1;fontSize=12;startSize=8;endSize=8;" edge="1" parent="1">
          <mxGeometry relative="1" as="geometry">
            <mxPoint x="466.25" y="1946" as="sourcePoint" />
            <mxPoint x="466.25" y="1926" as="targetPoint" />
          </mxGeometry>
        </mxCell>
        <mxCell id="digXNZdUGkVrMZ4BqyaZ-4" value="" style="edgeStyle=none;curved=1;rounded=0;orthogonalLoop=1;jettySize=auto;html=1;fontSize=12;startSize=8;endSize=8;" edge="1" parent="1">
          <mxGeometry relative="1" as="geometry">
            <mxPoint x="139.67000000000002" y="1926" as="targetPoint" />
            <mxPoint x="139.67000000000002" y="1946" as="sourcePoint" />
          </mxGeometry>
        </mxCell>
        <mxCell id="digXNZdUGkVrMZ4BqyaZ-5" value="" style="edgeStyle=none;curved=1;rounded=0;orthogonalLoop=1;jettySize=auto;html=1;fontSize=12;startSize=8;endSize=8;" edge="1" parent="1">
          <mxGeometry relative="1" as="geometry">
            <mxPoint x="375.96000000000004" y="1946" as="sourcePoint" />
            <mxPoint x="375.96000000000004" y="1926" as="targetPoint" />
          </mxGeometry>
        </mxCell>
        <mxCell id="digXNZdUGkVrMZ4BqyaZ-708" value="" style="verticalAlign=top;align=left;spacingTop=8;spacingLeft=2;spacingRight=12;shape=cube;size=10;direction=south;fontStyle=4;html=1;whiteSpace=wrap;movable=1;resizable=1;rotatable=1;deletable=1;editable=1;locked=0;connectable=1;container=0;fillColor=#6A8CAF;strokeColor=#000000;" vertex="1" parent="1">
          <mxGeometry x="357" y="1791" width="40" height="40" as="geometry" />
        </mxCell>
        <mxCell id="digXNZdUGkVrMZ4BqyaZ-709" value="" style="verticalAlign=top;align=left;spacingTop=8;spacingLeft=2;spacingRight=12;shape=cube;size=10;direction=south;fontStyle=4;html=1;whiteSpace=wrap;movable=1;resizable=1;rotatable=1;deletable=1;editable=1;locked=0;connectable=1;container=0;fillColor=#6A8CAF;strokeColor=#000000;" vertex="1" parent="1">
          <mxGeometry x="119.74000000000002" y="1791" width="40" height="40" as="geometry" />
        </mxCell>
        <mxCell id="digXNZdUGkVrMZ4BqyaZ-725" value="" style="edgeStyle=none;curved=1;rounded=0;orthogonalLoop=1;jettySize=auto;html=1;fontSize=12;startSize=8;endSize=8;" edge="1" parent="1">
          <mxGeometry relative="1" as="geometry">
            <mxPoint x="169.52000000000004" y="1831.5" as="targetPoint" />
            <mxPoint x="169.52000000000004" y="1851.5" as="sourcePoint" />
          </mxGeometry>
        </mxCell>
        <mxCell id="digXNZdUGkVrMZ4BqyaZ-726" value="" style="edgeStyle=none;curved=1;rounded=0;orthogonalLoop=1;jettySize=auto;html=1;fontSize=12;startSize=8;endSize=8;" edge="1" parent="1">
          <mxGeometry relative="1" as="geometry">
            <mxPoint x="199.52000000000004" y="1851.5" as="sourcePoint" />
            <mxPoint x="199.52000000000004" y="1831.5" as="targetPoint" />
          </mxGeometry>
        </mxCell>
        <mxCell id="digXNZdUGkVrMZ4BqyaZ-727" value="" style="edgeStyle=none;curved=1;rounded=0;orthogonalLoop=1;jettySize=auto;html=1;fontSize=12;startSize=8;endSize=8;" edge="1" parent="1">
          <mxGeometry relative="1" as="geometry">
            <mxPoint x="229.52000000000004" y="1851.5" as="sourcePoint" />
            <mxPoint x="229.52000000000004" y="1831.5" as="targetPoint" />
          </mxGeometry>
        </mxCell>
        <mxCell id="digXNZdUGkVrMZ4BqyaZ-732" value="" style="edgeStyle=none;curved=1;rounded=0;orthogonalLoop=1;jettySize=auto;html=1;fontSize=12;startSize=8;endSize=8;" edge="1" parent="1">
          <mxGeometry relative="1" as="geometry">
            <mxPoint x="432.5" y="1851" as="sourcePoint" />
            <mxPoint x="432.5" y="1831" as="targetPoint" />
          </mxGeometry>
        </mxCell>
        <mxCell id="digXNZdUGkVrMZ4BqyaZ-733" value="" style="edgeStyle=none;curved=1;rounded=0;orthogonalLoop=1;jettySize=auto;html=1;fontSize=12;startSize=8;endSize=8;" edge="1" parent="1">
          <mxGeometry relative="1" as="geometry">
            <mxPoint x="462.5" y="1851" as="sourcePoint" />
            <mxPoint x="462.5" y="1831" as="targetPoint" />
          </mxGeometry>
        </mxCell>
        <mxCell id="digXNZdUGkVrMZ4BqyaZ-737" value="" style="edgeStyle=none;curved=1;rounded=0;orthogonalLoop=1;jettySize=auto;html=1;fontSize=12;startSize=8;endSize=8;" edge="1" parent="1">
          <mxGeometry relative="1" as="geometry">
            <mxPoint x="139.52000000000004" y="1831.5" as="targetPoint" />
            <mxPoint x="139.52000000000004" y="1851.5" as="sourcePoint" />
          </mxGeometry>
        </mxCell>
        <mxCell id="digXNZdUGkVrMZ4BqyaZ-738" value="" style="edgeStyle=none;curved=1;rounded=0;orthogonalLoop=1;jettySize=auto;html=1;fontSize=12;startSize=8;endSize=8;" edge="1" parent="1">
          <mxGeometry relative="1" as="geometry">
            <mxPoint x="372.5" y="1851" as="sourcePoint" />
            <mxPoint x="372.5" y="1831" as="targetPoint" />
          </mxGeometry>
        </mxCell>
        <mxCell id="digXNZdUGkVrMZ4BqyaZ-870" value="" style="rounded=0;whiteSpace=wrap;html=1;fillColor=#E3E7EB;strokeColor=#36393d;" vertex="1" parent="1">
          <mxGeometry x="555" y="1414" width="573" height="571" as="geometry" />
        </mxCell>
        <mxCell id="kQ3vYmZmV89KcB6vO9J0-50" value="Token Aggregation" style="rounded=0;whiteSpace=wrap;html=1;fontSize=24;strokeWidth=2;" vertex="1" parent="1">
          <mxGeometry x="699.49" y="1346" width="280" height="40" as="geometry" />
        </mxCell>
        <mxCell id="kQ3vYmZmV89KcB6vO9J0-1" value="&lt;span style=&quot;font-family: Tahoma; font-style: italic;&quot;&gt;Cross-Dimension&amp;nbsp;&lt;/span&gt;&lt;div&gt;&lt;span style=&quot;font-family: Tahoma; font-style: italic;&quot;&gt;Self-Attention&lt;/span&gt;&lt;/div&gt;" style="rounded=0;whiteSpace=wrap;html=1;fontSize=24;strokeWidth=2;" vertex="1" parent="1">
          <mxGeometry x="570" y="1763" width="200" height="80" as="geometry" />
        </mxCell>
        <mxCell id="kQ3vYmZmV89KcB6vO9J0-2" value="&lt;font face=&quot;Tahoma&quot;&gt;&lt;i&gt;Feed Forward&lt;/i&gt;&lt;/font&gt;" style="rounded=0;whiteSpace=wrap;html=1;fontSize=24;strokeWidth=2;" vertex="1" parent="1">
          <mxGeometry x="570" y="1523" width="200" height="40" as="geometry" />
        </mxCell>
        <mxCell id="kQ3vYmZmV89KcB6vO9J0-3" value="&lt;font face=&quot;Tahoma&quot;&gt;&lt;i&gt;Norm&lt;/i&gt;&lt;/font&gt;" style="rounded=0;whiteSpace=wrap;html=1;fontSize=24;strokeWidth=2;" vertex="1" parent="1">
          <mxGeometry x="570" y="1883" width="200" height="40" as="geometry" />
        </mxCell>
        <mxCell id="kQ3vYmZmV89KcB6vO9J0-4" value="&lt;font face=&quot;Tahoma&quot;&gt;&lt;i&gt;Norm&lt;/i&gt;&lt;/font&gt;" style="rounded=0;whiteSpace=wrap;html=1;fontSize=24;strokeWidth=2;" vertex="1" parent="1">
          <mxGeometry x="570" y="1601" width="200" height="40" as="geometry" />
        </mxCell>
        <mxCell id="kQ3vYmZmV89KcB6vO9J0-5" style="edgeStyle=none;curved=1;rounded=0;orthogonalLoop=1;jettySize=auto;html=1;fontSize=12;startSize=8;endSize=8;strokeWidth=5;entryX=0.5;entryY=1;entryDx=0;entryDy=0;" edge="1" parent="1" target="kQ3vYmZmV89KcB6vO9J0-12">
          <mxGeometry relative="1" as="geometry">
            <mxPoint x="799.37" y="1983" as="sourcePoint" />
            <mxPoint x="799.37" y="1789" as="targetPoint" />
          </mxGeometry>
        </mxCell>
        <mxCell id="kQ3vYmZmV89KcB6vO9J0-9" style="edgeStyle=none;curved=1;rounded=0;orthogonalLoop=1;jettySize=auto;html=1;fontSize=12;startSize=8;endSize=8;strokeWidth=3;exitX=0.5;exitY=0;exitDx=0;exitDy=0;" edge="1" parent="1">
          <mxGeometry relative="1" as="geometry">
            <mxPoint x="669.37" y="1603" as="sourcePoint" />
            <mxPoint x="669.37" y="1563" as="targetPoint" />
          </mxGeometry>
        </mxCell>
        <mxCell id="kQ3vYmZmV89KcB6vO9J0-10" style="edgeStyle=none;curved=1;rounded=0;orthogonalLoop=1;jettySize=auto;html=1;fontSize=12;startSize=8;endSize=8;strokeWidth=3;entryX=0.5;entryY=1;entryDx=0;entryDy=0;endArrow=none;startFill=0;" edge="1" parent="1">
          <mxGeometry relative="1" as="geometry">
            <mxPoint x="669.37" y="1763" as="sourcePoint" />
            <mxPoint x="669.37" y="1723" as="targetPoint" />
          </mxGeometry>
        </mxCell>
        <mxCell id="kQ3vYmZmV89KcB6vO9J0-12" value="&lt;font face=&quot;Tahoma&quot;&gt;&lt;i&gt;ADD&lt;/i&gt;&lt;/font&gt;" style="rounded=0;whiteSpace=wrap;html=1;fontSize=24;strokeWidth=2;" vertex="1" parent="1">
          <mxGeometry x="769.37" y="1703" width="60" height="40" as="geometry" />
        </mxCell>
        <mxCell id="kQ3vYmZmV89KcB6vO9J0-13" style="edgeStyle=none;curved=1;rounded=0;orthogonalLoop=1;jettySize=auto;html=1;fontSize=12;startSize=8;endSize=8;strokeWidth=5;entryX=0.5;entryY=1;entryDx=0;entryDy=0;exitX=0.503;exitY=-0.068;exitDx=0;exitDy=0;exitPerimeter=0;" edge="1" parent="1" source="kQ3vYmZmV89KcB6vO9J0-12" target="kQ3vYmZmV89KcB6vO9J0-16">
          <mxGeometry relative="1" as="geometry">
            <mxPoint x="799.37" y="1699" as="sourcePoint" />
            <mxPoint x="799.0300000000001" y="1478" as="targetPoint" />
          </mxGeometry>
        </mxCell>
        <mxCell id="kQ3vYmZmV89KcB6vO9J0-14" style="edgeStyle=none;curved=1;rounded=0;orthogonalLoop=1;jettySize=auto;html=1;fontSize=12;startSize=8;endSize=8;strokeWidth=3;endArrow=none;startFill=0;" edge="1" parent="1">
          <mxGeometry relative="1" as="geometry">
            <mxPoint x="669.37" y="1683" as="sourcePoint" />
            <mxPoint x="799.37" y="1683" as="targetPoint" />
          </mxGeometry>
        </mxCell>
        <mxCell id="kQ3vYmZmV89KcB6vO9J0-15" style="edgeStyle=none;curved=1;rounded=0;orthogonalLoop=1;jettySize=auto;html=1;fontSize=12;startSize=8;endSize=8;strokeWidth=3;entryX=0.5;entryY=1;entryDx=0;entryDy=0;" edge="1" parent="1" target="kQ3vYmZmV89KcB6vO9J0-4">
          <mxGeometry relative="1" as="geometry">
            <mxPoint x="669.37" y="1683" as="sourcePoint" />
            <mxPoint x="639.25" y="1651.02" as="targetPoint" />
          </mxGeometry>
        </mxCell>
        <mxCell id="kQ3vYmZmV89KcB6vO9J0-16" value="&lt;font face=&quot;Tahoma&quot;&gt;&lt;i&gt;ADD&lt;/i&gt;&lt;/font&gt;" style="rounded=0;whiteSpace=wrap;html=1;fontSize=24;strokeWidth=2;" vertex="1" parent="1">
          <mxGeometry x="769.37" y="1463" width="60" height="40" as="geometry" />
        </mxCell>
        <mxCell id="kQ3vYmZmV89KcB6vO9J0-17" style="edgeStyle=none;curved=1;rounded=0;orthogonalLoop=1;jettySize=auto;html=1;fontSize=12;startSize=8;endSize=8;strokeWidth=3;entryX=0.5;entryY=1;entryDx=0;entryDy=0;exitX=0.5;exitY=0;exitDx=0;exitDy=0;endArrow=none;startFill=0;" edge="1" parent="1">
          <mxGeometry relative="1" as="geometry">
            <mxPoint x="669.37" y="1523" as="sourcePoint" />
            <mxPoint x="669.37" y="1483" as="targetPoint" />
          </mxGeometry>
        </mxCell>
        <mxCell id="kQ3vYmZmV89KcB6vO9J0-18" value="" style="edgeStyle=none;curved=1;rounded=0;orthogonalLoop=1;jettySize=auto;html=1;fontSize=12;startSize=8;endSize=8;strokeWidth=3;entryX=1;entryY=0.5;entryDx=0;entryDy=0;exitX=1;exitY=0.5;exitDx=0;exitDy=0;" edge="1" parent="1">
          <mxGeometry relative="1" as="geometry">
            <mxPoint x="669.37" y="1483" as="sourcePoint" />
            <mxPoint x="769.37" y="1483" as="targetPoint" />
          </mxGeometry>
        </mxCell>
        <mxCell id="kQ3vYmZmV89KcB6vO9J0-23" value="" style="edgeStyle=none;curved=1;rounded=0;orthogonalLoop=1;jettySize=auto;html=1;fontSize=12;startSize=8;endSize=8;strokeWidth=3;entryX=1;entryY=0.5;entryDx=0;entryDy=0;exitX=1;exitY=0.5;exitDx=0;exitDy=0;" edge="1" parent="1">
          <mxGeometry relative="1" as="geometry">
            <mxPoint x="669.37" y="1723" as="sourcePoint" />
            <mxPoint x="769.37" y="1723" as="targetPoint" />
          </mxGeometry>
        </mxCell>
        <mxCell id="kQ3vYmZmV89KcB6vO9J0-25" style="edgeStyle=none;curved=1;rounded=0;orthogonalLoop=1;jettySize=auto;html=1;fontSize=12;startSize=8;endSize=8;strokeWidth=3;entryX=0.5;entryY=1;entryDx=0;entryDy=0;exitX=0.5;exitY=0;exitDx=0;exitDy=0;" edge="1" parent="1">
          <mxGeometry relative="1" as="geometry">
            <mxPoint x="669.37" y="1963" as="sourcePoint" />
            <mxPoint x="669.37" y="1923" as="targetPoint" />
          </mxGeometry>
        </mxCell>
        <mxCell id="kQ3vYmZmV89KcB6vO9J0-26" value="" style="edgeStyle=none;curved=1;rounded=0;orthogonalLoop=1;jettySize=auto;html=1;fontSize=12;startSize=8;endSize=8;strokeWidth=3;entryX=0.5;entryY=1;entryDx=0;entryDy=0;exitX=0.5;exitY=0;exitDx=0;exitDy=0;" edge="1" parent="1" source="kQ3vYmZmV89KcB6vO9J0-3" target="kQ3vYmZmV89KcB6vO9J0-1">
          <mxGeometry relative="1" as="geometry">
            <mxPoint x="679.37" y="1843" as="sourcePoint" />
            <mxPoint x="779.37" y="1843" as="targetPoint" />
          </mxGeometry>
        </mxCell>
        <mxCell id="kQ3vYmZmV89KcB6vO9J0-27" style="edgeStyle=none;curved=1;rounded=0;orthogonalLoop=1;jettySize=auto;html=1;fontSize=12;startSize=8;endSize=8;strokeWidth=3;endArrow=none;startFill=0;" edge="1" parent="1">
          <mxGeometry relative="1" as="geometry">
            <mxPoint x="669.37" y="1963" as="sourcePoint" />
            <mxPoint x="799.37" y="1963" as="targetPoint" />
          </mxGeometry>
        </mxCell>
        <mxCell id="kQ3vYmZmV89KcB6vO9J0-28" value="&lt;span style=&quot;font-family: Tahoma; font-style: italic;&quot;&gt;Cross-Encoding&amp;nbsp;&lt;/span&gt;&lt;div&gt;&lt;span style=&quot;font-family: Tahoma; font-style: italic;&quot;&gt;Self-Attention&lt;/span&gt;&lt;/div&gt;" style="rounded=0;whiteSpace=wrap;html=1;fontSize=24;strokeWidth=2;" vertex="1" parent="1">
          <mxGeometry x="910" y="1763" width="200" height="80" as="geometry" />
        </mxCell>
        <mxCell id="kQ3vYmZmV89KcB6vO9J0-29" value="&lt;font face=&quot;Tahoma&quot;&gt;&lt;i&gt;Feed Forward&lt;/i&gt;&lt;/font&gt;" style="rounded=0;whiteSpace=wrap;html=1;fontSize=24;strokeWidth=2;" vertex="1" parent="1">
          <mxGeometry x="910" y="1523" width="200" height="40" as="geometry" />
        </mxCell>
        <mxCell id="kQ3vYmZmV89KcB6vO9J0-30" value="&lt;font face=&quot;Tahoma&quot;&gt;&lt;i&gt;Norm&lt;/i&gt;&lt;/font&gt;" style="rounded=0;whiteSpace=wrap;html=1;fontSize=24;strokeWidth=2;" vertex="1" parent="1">
          <mxGeometry x="910" y="1883" width="200" height="40" as="geometry" />
        </mxCell>
        <mxCell id="kQ3vYmZmV89KcB6vO9J0-31" value="&lt;font face=&quot;Tahoma&quot;&gt;&lt;i&gt;Norm&lt;/i&gt;&lt;/font&gt;" style="rounded=0;whiteSpace=wrap;html=1;fontSize=24;strokeWidth=2;" vertex="1" parent="1">
          <mxGeometry x="910" y="1603" width="200" height="40" as="geometry" />
        </mxCell>
        <mxCell id="kQ3vYmZmV89KcB6vO9J0-32" style="edgeStyle=none;curved=1;rounded=0;orthogonalLoop=1;jettySize=auto;html=1;fontSize=12;startSize=8;endSize=8;strokeWidth=5;entryX=0.5;entryY=1;entryDx=0;entryDy=0;" edge="1" parent="1" target="kQ3vYmZmV89KcB6vO9J0-35">
          <mxGeometry relative="1" as="geometry">
            <mxPoint x="879.49" y="1983" as="sourcePoint" />
            <mxPoint x="879.49" y="1789" as="targetPoint" />
          </mxGeometry>
        </mxCell>
        <mxCell id="kQ3vYmZmV89KcB6vO9J0-33" style="edgeStyle=none;curved=1;rounded=0;orthogonalLoop=1;jettySize=auto;html=1;fontSize=12;startSize=8;endSize=8;strokeWidth=3;exitX=0.5;exitY=0;exitDx=0;exitDy=0;" edge="1" parent="1">
          <mxGeometry relative="1" as="geometry">
            <mxPoint x="1009.4899999999999" y="1603" as="sourcePoint" />
            <mxPoint x="1009.4899999999999" y="1563" as="targetPoint" />
          </mxGeometry>
        </mxCell>
        <mxCell id="kQ3vYmZmV89KcB6vO9J0-34" style="edgeStyle=none;curved=1;rounded=0;orthogonalLoop=1;jettySize=auto;html=1;fontSize=12;startSize=8;endSize=8;strokeWidth=3;entryX=0.5;entryY=1;entryDx=0;entryDy=0;endArrow=none;startFill=0;" edge="1" parent="1">
          <mxGeometry relative="1" as="geometry">
            <mxPoint x="1009.4899999999999" y="1763" as="sourcePoint" />
            <mxPoint x="1009.4899999999999" y="1723" as="targetPoint" />
          </mxGeometry>
        </mxCell>
        <mxCell id="kQ3vYmZmV89KcB6vO9J0-35" value="&lt;font face=&quot;Tahoma&quot;&gt;&lt;i&gt;ADD&lt;/i&gt;&lt;/font&gt;" style="rounded=0;whiteSpace=wrap;html=1;fontSize=24;strokeWidth=2;" vertex="1" parent="1">
          <mxGeometry x="849.49" y="1703" width="60" height="40" as="geometry" />
        </mxCell>
        <mxCell id="kQ3vYmZmV89KcB6vO9J0-36" style="edgeStyle=none;curved=1;rounded=0;orthogonalLoop=1;jettySize=auto;html=1;fontSize=12;startSize=8;endSize=8;strokeWidth=2;entryX=0.5;entryY=1;entryDx=0;entryDy=0;exitX=0.503;exitY=-0.068;exitDx=0;exitDy=0;exitPerimeter=0;" edge="1" parent="1" source="kQ3vYmZmV89KcB6vO9J0-35" target="kQ3vYmZmV89KcB6vO9J0-39">
          <mxGeometry relative="1" as="geometry">
            <mxPoint x="879.49" y="1699" as="sourcePoint" />
            <mxPoint x="879.1500000000001" y="1478" as="targetPoint" />
          </mxGeometry>
        </mxCell>
        <mxCell id="kQ3vYmZmV89KcB6vO9J0-37" style="edgeStyle=none;curved=1;rounded=0;orthogonalLoop=1;jettySize=auto;html=1;fontSize=12;startSize=8;endSize=8;strokeWidth=3;endArrow=none;startFill=0;" edge="1" parent="1">
          <mxGeometry relative="1" as="geometry">
            <mxPoint x="879.49" y="1683" as="sourcePoint" />
            <mxPoint x="1009.4899999999999" y="1683" as="targetPoint" />
          </mxGeometry>
        </mxCell>
        <mxCell id="kQ3vYmZmV89KcB6vO9J0-38" style="edgeStyle=none;curved=1;rounded=0;orthogonalLoop=1;jettySize=auto;html=1;fontSize=12;startSize=8;endSize=8;strokeWidth=3;entryX=0.5;entryY=1;entryDx=0;entryDy=0;" edge="1" parent="1">
          <mxGeometry relative="1" as="geometry">
            <mxPoint x="1009.4899999999999" y="1683" as="sourcePoint" />
            <mxPoint x="1009.4899999999999" y="1643" as="targetPoint" />
          </mxGeometry>
        </mxCell>
        <mxCell id="kQ3vYmZmV89KcB6vO9J0-39" value="&lt;font face=&quot;Tahoma&quot;&gt;&lt;i&gt;ADD&lt;/i&gt;&lt;/font&gt;" style="rounded=0;whiteSpace=wrap;html=1;fontSize=24;strokeWidth=2;" vertex="1" parent="1">
          <mxGeometry x="849.49" y="1463" width="60" height="40" as="geometry" />
        </mxCell>
        <mxCell id="kQ3vYmZmV89KcB6vO9J0-40" style="edgeStyle=none;curved=1;rounded=0;orthogonalLoop=1;jettySize=auto;html=1;fontSize=12;startSize=8;endSize=8;strokeWidth=3;entryX=0.5;entryY=1;entryDx=0;entryDy=0;exitX=0.5;exitY=0;exitDx=0;exitDy=0;endArrow=none;startFill=0;" edge="1" parent="1">
          <mxGeometry relative="1" as="geometry">
            <mxPoint x="1009.4899999999999" y="1523" as="sourcePoint" />
            <mxPoint x="1009.4899999999999" y="1483" as="targetPoint" />
          </mxGeometry>
        </mxCell>
        <mxCell id="kQ3vYmZmV89KcB6vO9J0-41" value="" style="edgeStyle=none;curved=1;rounded=0;orthogonalLoop=1;jettySize=auto;html=1;fontSize=12;startSize=8;endSize=8;strokeWidth=3;entryX=1;entryY=0.5;entryDx=0;entryDy=0;exitX=1;exitY=0.5;exitDx=0;exitDy=0;" edge="1" parent="1">
          <mxGeometry relative="1" as="geometry">
            <mxPoint x="1010" y="1483" as="sourcePoint" />
            <mxPoint x="910" y="1483" as="targetPoint" />
          </mxGeometry>
        </mxCell>
        <mxCell id="kQ3vYmZmV89KcB6vO9J0-43" value="" style="edgeStyle=none;curved=1;rounded=0;orthogonalLoop=1;jettySize=auto;html=1;fontSize=12;startSize=8;endSize=8;strokeWidth=3;entryX=1;entryY=0.5;entryDx=0;entryDy=0;exitX=1;exitY=0.5;exitDx=0;exitDy=0;" edge="1" parent="1">
          <mxGeometry relative="1" as="geometry">
            <mxPoint x="1009.4899999999999" y="1723" as="sourcePoint" />
            <mxPoint x="909.49" y="1723" as="targetPoint" />
          </mxGeometry>
        </mxCell>
        <mxCell id="kQ3vYmZmV89KcB6vO9J0-44" style="edgeStyle=none;curved=1;rounded=0;orthogonalLoop=1;jettySize=auto;html=1;fontSize=12;startSize=8;endSize=8;strokeWidth=3;entryX=0.5;entryY=1;entryDx=0;entryDy=0;exitX=0.5;exitY=0;exitDx=0;exitDy=0;" edge="1" parent="1">
          <mxGeometry relative="1" as="geometry">
            <mxPoint x="1009.4899999999999" y="1963" as="sourcePoint" />
            <mxPoint x="1009.4899999999999" y="1923" as="targetPoint" />
          </mxGeometry>
        </mxCell>
        <mxCell id="kQ3vYmZmV89KcB6vO9J0-45" value="" style="edgeStyle=none;curved=1;rounded=0;orthogonalLoop=1;jettySize=auto;html=1;fontSize=12;startSize=8;endSize=8;strokeWidth=3;entryX=0.5;entryY=1;entryDx=0;entryDy=0;exitX=0.5;exitY=0;exitDx=0;exitDy=0;" edge="1" parent="1" source="kQ3vYmZmV89KcB6vO9J0-30" target="kQ3vYmZmV89KcB6vO9J0-28">
          <mxGeometry relative="1" as="geometry">
            <mxPoint x="759.49" y="1843" as="sourcePoint" />
            <mxPoint x="859.49" y="1843" as="targetPoint" />
          </mxGeometry>
        </mxCell>
        <mxCell id="kQ3vYmZmV89KcB6vO9J0-46" style="edgeStyle=none;curved=1;rounded=0;orthogonalLoop=1;jettySize=auto;html=1;fontSize=12;startSize=8;endSize=8;strokeWidth=3;endArrow=none;startFill=0;" edge="1" parent="1">
          <mxGeometry relative="1" as="geometry">
            <mxPoint x="879.49" y="1963" as="sourcePoint" />
            <mxPoint x="1009.4899999999999" y="1963" as="targetPoint" />
          </mxGeometry>
        </mxCell>
        <mxCell id="kQ3vYmZmV89KcB6vO9J0-52" value="Classifier / Regressor" style="rounded=0;whiteSpace=wrap;html=1;fontSize=24;strokeWidth=2;" vertex="1" parent="1">
          <mxGeometry x="699.49" y="1266" width="280" height="40" as="geometry" />
        </mxCell>
        <mxCell id="kQ3vYmZmV89KcB6vO9J0-53" style="edgeStyle=none;curved=1;rounded=0;orthogonalLoop=1;jettySize=auto;html=1;fontSize=12;startSize=8;endSize=8;strokeWidth=5;" edge="1" parent="1">
          <mxGeometry relative="1" as="geometry">
            <mxPoint x="839.49" y="1346" as="sourcePoint" />
            <mxPoint x="839.49" y="1306" as="targetPoint" />
          </mxGeometry>
        </mxCell>
        <mxCell id="kQ3vYmZmV89KcB6vO9J0-54" value="Token Extension" style="rounded=0;whiteSpace=wrap;html=1;fontSize=24;strokeWidth=2;" vertex="1" parent="1">
          <mxGeometry x="740" y="2025" width="200" height="40" as="geometry" />
        </mxCell>
        <mxCell id="kQ3vYmZmV89KcB6vO9J0-55" style="edgeStyle=none;curved=1;rounded=0;orthogonalLoop=1;jettySize=auto;html=1;fontSize=12;startSize=8;endSize=8;strokeWidth=5;" edge="1" parent="1">
          <mxGeometry relative="1" as="geometry">
            <mxPoint x="840" y="2025" as="sourcePoint" />
            <mxPoint x="840" y="1985" as="targetPoint" />
          </mxGeometry>
        </mxCell>
        <mxCell id="kQ3vYmZmV89KcB6vO9J0-57" value="Dual-Stream&lt;div&gt;Embedding&lt;/div&gt;" style="rounded=0;whiteSpace=wrap;html=1;fontSize=24;strokeWidth=2;" vertex="1" parent="1">
          <mxGeometry x="740" y="2100" width="200" height="60" as="geometry" />
        </mxCell>
        <mxCell id="digXNZdUGkVrMZ4BqyaZ-871" value="&lt;font style=&quot;font-size: 24px;&quot;&gt;x L&lt;/font&gt;" style="text;html=1;align=center;verticalAlign=middle;whiteSpace=wrap;rounded=0;strokeWidth=4;fontSize=20;fontFamily=Tahoma;fontStyle=3" vertex="1" parent="1">
          <mxGeometry x="676" y="1424" width="68" height="40" as="geometry" />
        </mxCell>
        <mxCell id="kQ3vYmZmV89KcB6vO9J0-165" value="" style="rounded=0;whiteSpace=wrap;html=1;" vertex="1" parent="1">
          <mxGeometry x="1135" y="1499" width="490" height="220" as="geometry" />
        </mxCell>
        <mxCell id="YeaHek69Ytw8NYJ7rFM1-225" value="Self Attention" style="verticalAlign=middle;align=center;spacingTop=8;spacingLeft=2;spacingRight=12;shape=cube;size=10;direction=south;fontStyle=2;whiteSpace=wrap;movable=1;resizable=1;rotatable=1;deletable=1;editable=1;locked=0;connectable=1;container=0;fillStyle=solid;fontFamily=Tahoma;textDirection=ltr;fontSize=24;" vertex="1" parent="1">
          <mxGeometry x="1140" y="1584" width="160" height="60" as="geometry" />
        </mxCell>
        <mxCell id="digXNZdUGkVrMZ4BqyaZ-786" value="" style="edgeStyle=none;curved=1;rounded=0;orthogonalLoop=1;jettySize=auto;html=1;fontSize=12;startSize=8;endSize=8;" edge="1" parent="1">
          <mxGeometry relative="1" as="geometry">
            <mxPoint x="1193.3700000000001" y="1664" as="sourcePoint" />
            <mxPoint x="1193.3700000000001" y="1643" as="targetPoint" />
          </mxGeometry>
        </mxCell>
        <mxCell id="digXNZdUGkVrMZ4BqyaZ-787" value="" style="edgeStyle=none;curved=1;rounded=0;orthogonalLoop=1;jettySize=auto;html=1;fontSize=12;startSize=8;endSize=8;" edge="1" parent="1">
          <mxGeometry relative="1" as="geometry">
            <mxPoint x="1223.37" y="1664" as="sourcePoint" />
            <mxPoint x="1223.37" y="1643" as="targetPoint" />
            <Array as="points">
              <mxPoint x="1223.3700000000001" y="1643" />
            </Array>
          </mxGeometry>
        </mxCell>
        <mxCell id="EmWOU35e91uUj3-notsa-24" value="Self Attention" style="verticalAlign=middle;align=center;spacingTop=8;spacingLeft=2;spacingRight=12;shape=cube;size=10;direction=south;fontStyle=2;whiteSpace=wrap;movable=1;resizable=1;rotatable=1;deletable=1;editable=1;locked=0;connectable=1;container=0;fillStyle=solid;fontFamily=Tahoma;textDirection=ltr;fontSize=24;" vertex="1" parent="1">
          <mxGeometry x="1300" y="1584" width="160" height="60" as="geometry" />
        </mxCell>
        <mxCell id="kQ3vYmZmV89KcB6vO9J0-115" value="" style="edgeStyle=none;curved=1;rounded=0;orthogonalLoop=1;jettySize=auto;html=1;fontSize=12;startSize=8;endSize=8;" edge="1" parent="1">
          <mxGeometry relative="1" as="geometry">
            <mxPoint x="1253.37" y="1664" as="sourcePoint" />
            <mxPoint x="1253.37" y="1643" as="targetPoint" />
            <Array as="points">
              <mxPoint x="1253.37" y="1644" />
            </Array>
          </mxGeometry>
        </mxCell>
        <mxCell id="kQ3vYmZmV89KcB6vO9J0-116" value="" style="edgeStyle=none;curved=1;rounded=0;orthogonalLoop=1;jettySize=auto;html=1;fontSize=12;startSize=8;endSize=8;" edge="1" parent="1">
          <mxGeometry relative="1" as="geometry">
            <mxPoint x="1349.1899999999998" y="1664" as="sourcePoint" />
            <mxPoint x="1349.1899999999998" y="1643" as="targetPoint" />
          </mxGeometry>
        </mxCell>
        <mxCell id="kQ3vYmZmV89KcB6vO9J0-117" value="" style="edgeStyle=none;curved=1;rounded=0;orthogonalLoop=1;jettySize=auto;html=1;fontSize=12;startSize=8;endSize=8;" edge="1" parent="1">
          <mxGeometry relative="1" as="geometry">
            <mxPoint x="1379.1899999999996" y="1664" as="sourcePoint" />
            <mxPoint x="1379.1899999999996" y="1643" as="targetPoint" />
            <Array as="points">
              <mxPoint x="1379.1899999999998" y="1643" />
            </Array>
          </mxGeometry>
        </mxCell>
        <mxCell id="kQ3vYmZmV89KcB6vO9J0-118" value="" style="edgeStyle=none;curved=1;rounded=0;orthogonalLoop=1;jettySize=auto;html=1;fontSize=12;startSize=8;endSize=8;" edge="1" parent="1">
          <mxGeometry relative="1" as="geometry">
            <mxPoint x="1409.1899999999996" y="1664" as="sourcePoint" />
            <mxPoint x="1409.1899999999996" y="1643" as="targetPoint" />
            <Array as="points">
              <mxPoint x="1409.1899999999996" y="1644" />
            </Array>
          </mxGeometry>
        </mxCell>
        <mxCell id="kQ3vYmZmV89KcB6vO9J0-119" value="" style="edgeStyle=none;curved=1;rounded=0;orthogonalLoop=1;jettySize=auto;html=1;fontSize=12;startSize=8;endSize=8;" edge="1" parent="1">
          <mxGeometry relative="1" as="geometry">
            <mxPoint x="1503.37" y="1664" as="sourcePoint" />
            <mxPoint x="1503.37" y="1643" as="targetPoint" />
          </mxGeometry>
        </mxCell>
        <mxCell id="kQ3vYmZmV89KcB6vO9J0-120" value="" style="edgeStyle=none;curved=1;rounded=0;orthogonalLoop=1;jettySize=auto;html=1;fontSize=12;startSize=8;endSize=8;" edge="1" parent="1">
          <mxGeometry relative="1" as="geometry">
            <mxPoint x="1533.37" y="1664" as="sourcePoint" />
            <mxPoint x="1533.37" y="1643" as="targetPoint" />
            <Array as="points">
              <mxPoint x="1533.37" y="1644" />
            </Array>
          </mxGeometry>
        </mxCell>
        <mxCell id="kQ3vYmZmV89KcB6vO9J0-121" value="" style="edgeStyle=none;curved=1;rounded=0;orthogonalLoop=1;jettySize=auto;html=1;fontSize=12;startSize=8;endSize=8;" edge="1" parent="1">
          <mxGeometry relative="1" as="geometry">
            <mxPoint x="1563.37" y="1664" as="sourcePoint" />
            <mxPoint x="1563.37" y="1643" as="targetPoint" />
            <Array as="points">
              <mxPoint x="1563.37" y="1644" />
            </Array>
          </mxGeometry>
        </mxCell>
        <mxCell id="kQ3vYmZmV89KcB6vO9J0-125" value="" style="edgeStyle=none;curved=1;rounded=0;orthogonalLoop=1;jettySize=auto;html=1;fontSize=12;startSize=8;endSize=8;" edge="1" parent="1">
          <mxGeometry relative="1" as="geometry">
            <mxPoint x="1192.7399999999996" y="1583" as="sourcePoint" />
            <mxPoint x="1192.7399999999996" y="1563" as="targetPoint" />
          </mxGeometry>
        </mxCell>
        <mxCell id="kQ3vYmZmV89KcB6vO9J0-136" value="" style="edgeStyle=none;curved=1;rounded=0;orthogonalLoop=1;jettySize=auto;html=1;fontSize=12;startSize=8;endSize=8;" edge="1" parent="1">
          <mxGeometry relative="1" as="geometry">
            <mxPoint x="1348.3699999999997" y="1583" as="sourcePoint" />
            <mxPoint x="1348.3699999999997" y="1563" as="targetPoint" />
          </mxGeometry>
        </mxCell>
        <mxCell id="kQ3vYmZmV89KcB6vO9J0-139" value="" style="edgeStyle=none;curved=1;rounded=0;orthogonalLoop=1;jettySize=auto;html=1;fontSize=12;startSize=8;endSize=8;" edge="1" parent="1">
          <mxGeometry relative="1" as="geometry">
            <mxPoint x="1503.3699999999997" y="1583" as="sourcePoint" />
            <mxPoint x="1503.3699999999997" y="1563" as="targetPoint" />
          </mxGeometry>
        </mxCell>
        <mxCell id="kQ3vYmZmV89KcB6vO9J0-250" value="Project" style="rounded=0;whiteSpace=wrap;html=1;fontSize=24;strokeWidth=2;" vertex="1" parent="1">
          <mxGeometry x="279.2299999999999" y="1674" width="120" height="30" as="geometry" />
        </mxCell>
        <mxCell id="kQ3vYmZmV89KcB6vO9J0-251" value="Softmax" style="rounded=0;whiteSpace=wrap;html=1;fontSize=24;strokeWidth=2;" vertex="1" parent="1">
          <mxGeometry x="359.2299999999999" y="1574" width="120" height="30" as="geometry" />
        </mxCell>
        <mxCell id="kQ3vYmZmV89KcB6vO9J0-252" value="ReLu" style="rounded=0;whiteSpace=wrap;html=1;fontSize=24;strokeWidth=2;" vertex="1" parent="1">
          <mxGeometry x="199.2299999999999" y="1574" width="120" height="30" as="geometry" />
        </mxCell>
        <mxCell id="kQ3vYmZmV89KcB6vO9J0-253" value="Square" style="rounded=0;whiteSpace=wrap;html=1;fontSize=24;strokeWidth=2;" vertex="1" parent="1">
          <mxGeometry x="197.9699999999997" y="1524" width="120" height="30" as="geometry" />
        </mxCell>
        <mxCell id="kQ3vYmZmV89KcB6vO9J0-256" value="" style="endArrow=classic;html=1;rounded=0;fontSize=12;startSize=8;endSize=8;curved=1;strokeWidth=2;" edge="1" parent="1">
          <mxGeometry width="50" height="50" relative="1" as="geometry">
            <mxPoint x="299.2299999999999" y="1655" as="sourcePoint" />
            <mxPoint x="329.2299999999999" y="1655" as="targetPoint" />
          </mxGeometry>
        </mxCell>
        <mxCell id="kQ3vYmZmV89KcB6vO9J0-268" value="" style="endArrow=classic;html=1;rounded=0;fontSize=12;startSize=8;endSize=8;curved=1;strokeWidth=2;" edge="1" parent="1">
          <mxGeometry width="50" height="50" relative="1" as="geometry">
            <mxPoint x="379.2299999999999" y="1655" as="sourcePoint" />
            <mxPoint x="349.2299999999999" y="1655" as="targetPoint" />
          </mxGeometry>
        </mxCell>
        <mxCell id="kQ3vYmZmV89KcB6vO9J0-270" style="edgeStyle=none;curved=1;rounded=0;orthogonalLoop=1;jettySize=auto;html=1;fontSize=12;startSize=8;endSize=8;strokeWidth=2;endArrow=none;startFill=0;" edge="1" parent="1">
          <mxGeometry relative="1" as="geometry">
            <mxPoint x="299.2299999999999" y="1674" as="sourcePoint" />
            <mxPoint x="299.2299999999999" y="1654" as="targetPoint" />
          </mxGeometry>
        </mxCell>
        <mxCell id="kQ3vYmZmV89KcB6vO9J0-271" style="edgeStyle=none;curved=1;rounded=0;orthogonalLoop=1;jettySize=auto;html=1;fontSize=12;startSize=8;endSize=8;strokeWidth=2;endArrow=none;startFill=0;" edge="1" parent="1">
          <mxGeometry relative="1" as="geometry">
            <mxPoint x="379.2299999999999" y="1674" as="sourcePoint" />
            <mxPoint x="379.2299999999999" y="1654" as="targetPoint" />
          </mxGeometry>
        </mxCell>
        <mxCell id="kQ3vYmZmV89KcB6vO9J0-272" style="edgeStyle=none;curved=1;rounded=0;orthogonalLoop=1;jettySize=auto;html=1;fontSize=12;startSize=8;endSize=8;strokeWidth=2;endArrow=none;startFill=0;" edge="1" parent="1">
          <mxGeometry relative="1" as="geometry">
            <mxPoint x="339.2299999999999" y="1645" as="sourcePoint" />
            <mxPoint x="339.2299999999999" y="1634" as="targetPoint" />
          </mxGeometry>
        </mxCell>
        <mxCell id="kQ3vYmZmV89KcB6vO9J0-273" style="edgeStyle=none;curved=1;rounded=0;orthogonalLoop=1;jettySize=auto;html=1;fontSize=12;startSize=8;endSize=8;strokeWidth=2;endArrow=none;startFill=0;" edge="1" parent="1">
          <mxGeometry relative="1" as="geometry">
            <mxPoint x="259.2299999999999" y="1634" as="sourcePoint" />
            <mxPoint x="339.2299999999999" y="1634" as="targetPoint" />
          </mxGeometry>
        </mxCell>
        <mxCell id="kQ3vYmZmV89KcB6vO9J0-274" style="edgeStyle=none;curved=1;rounded=0;orthogonalLoop=1;jettySize=auto;html=1;fontSize=12;startSize=8;endSize=8;strokeWidth=2;endArrow=none;startFill=0;" edge="1" parent="1">
          <mxGeometry relative="1" as="geometry">
            <mxPoint x="339.2299999999999" y="1634" as="sourcePoint" />
            <mxPoint x="419.2299999999999" y="1634" as="targetPoint" />
          </mxGeometry>
        </mxCell>
        <mxCell id="kQ3vYmZmV89KcB6vO9J0-276" value="" style="endArrow=classic;html=1;rounded=0;fontSize=12;startSize=8;endSize=8;curved=1;strokeWidth=2;" edge="1" parent="1">
          <mxGeometry width="50" height="50" relative="1" as="geometry">
            <mxPoint x="259.2299999999999" y="1634" as="sourcePoint" />
            <mxPoint x="259.2299999999999" y="1604" as="targetPoint" />
          </mxGeometry>
        </mxCell>
        <mxCell id="kQ3vYmZmV89KcB6vO9J0-277" value="" style="endArrow=classic;html=1;rounded=0;fontSize=12;startSize=8;endSize=8;curved=1;strokeWidth=2;" edge="1" parent="1">
          <mxGeometry width="50" height="50" relative="1" as="geometry">
            <mxPoint x="419.2299999999999" y="1634" as="sourcePoint" />
            <mxPoint x="419.2299999999999" y="1604" as="targetPoint" />
          </mxGeometry>
        </mxCell>
        <mxCell id="kQ3vYmZmV89KcB6vO9J0-278" value="" style="endArrow=classic;html=1;rounded=0;fontSize=12;startSize=8;endSize=8;curved=1;strokeWidth=2;" edge="1" parent="1">
          <mxGeometry width="50" height="50" relative="1" as="geometry">
            <mxPoint x="259.2299999999999" y="1574" as="sourcePoint" />
            <mxPoint x="259.2299999999999" y="1554" as="targetPoint" />
          </mxGeometry>
        </mxCell>
        <mxCell id="kQ3vYmZmV89KcB6vO9J0-279" value="" style="endArrow=classic;html=1;rounded=0;fontSize=12;startSize=8;endSize=8;curved=1;strokeWidth=2;" edge="1" parent="1">
          <mxGeometry width="50" height="50" relative="1" as="geometry">
            <mxPoint x="419.2299999999999" y="1574" as="sourcePoint" />
            <mxPoint x="419.2299999999999" y="1504" as="targetPoint" />
          </mxGeometry>
        </mxCell>
        <mxCell id="kQ3vYmZmV89KcB6vO9J0-281" value="" style="endArrow=classic;html=1;rounded=0;fontSize=12;startSize=8;endSize=8;curved=1;strokeWidth=2;" edge="1" parent="1">
          <mxGeometry width="50" height="50" relative="1" as="geometry">
            <mxPoint x="259.2299999999999" y="1524" as="sourcePoint" />
            <mxPoint x="259.2299999999999" y="1504" as="targetPoint" />
          </mxGeometry>
        </mxCell>
        <mxCell id="kQ3vYmZmV89KcB6vO9J0-282" value="" style="ellipse;whiteSpace=wrap;html=1;aspect=fixed;" vertex="1" parent="1">
          <mxGeometry x="249.2299999999999" y="1484" width="20" height="20" as="geometry" />
        </mxCell>
        <mxCell id="kQ3vYmZmV89KcB6vO9J0-283" value="" style="ellipse;whiteSpace=wrap;html=1;aspect=fixed;" vertex="1" parent="1">
          <mxGeometry x="409.2299999999999" y="1484" width="20" height="20" as="geometry" />
        </mxCell>
        <mxCell id="kQ3vYmZmV89KcB6vO9J0-284" value="" style="verticalLabelPosition=bottom;verticalAlign=top;html=1;shape=mxgraph.flowchart.or;" vertex="1" parent="1">
          <mxGeometry x="329.2299999999999" y="1644" width="20" height="20" as="geometry" />
        </mxCell>
        <mxCell id="kQ3vYmZmV89KcB6vO9J0-286" value="" style="shape=waypoint;sketch=0;fillStyle=solid;size=6;pointerEvents=1;points=[];fillColor=none;resizable=0;rotatable=0;perimeter=centerPerimeter;snapToPoint=1;" vertex="1" parent="1">
          <mxGeometry x="249.2299999999999" y="1484" width="20" height="20" as="geometry" />
        </mxCell>
        <mxCell id="kQ3vYmZmV89KcB6vO9J0-287" value="" style="shape=waypoint;sketch=0;fillStyle=solid;size=6;pointerEvents=1;points=[];fillColor=none;resizable=0;rotatable=0;perimeter=centerPerimeter;snapToPoint=1;" vertex="1" parent="1">
          <mxGeometry x="409.2299999999999" y="1484" width="20" height="20" as="geometry" />
        </mxCell>
        <mxCell id="kQ3vYmZmV89KcB6vO9J0-290" style="edgeStyle=none;curved=1;rounded=0;orthogonalLoop=1;jettySize=auto;html=1;fontSize=12;startSize=8;endSize=8;strokeWidth=2;endArrow=none;startFill=0;" edge="1" parent="1">
          <mxGeometry relative="1" as="geometry">
            <mxPoint x="259.2299999999999" y="1464" as="sourcePoint" />
            <mxPoint x="259.2299999999999" y="1484" as="targetPoint" />
          </mxGeometry>
        </mxCell>
        <mxCell id="kQ3vYmZmV89KcB6vO9J0-291" style="edgeStyle=none;curved=1;rounded=0;orthogonalLoop=1;jettySize=auto;html=1;fontSize=12;startSize=8;endSize=8;strokeWidth=2;endArrow=none;startFill=0;" edge="1" parent="1">
          <mxGeometry relative="1" as="geometry">
            <mxPoint x="419.2299999999999" y="1464" as="sourcePoint" />
            <mxPoint x="419.2299999999999" y="1484" as="targetPoint" />
          </mxGeometry>
        </mxCell>
        <mxCell id="kQ3vYmZmV89KcB6vO9J0-293" value="" style="shape=orEllipse;perimeter=ellipsePerimeter;whiteSpace=wrap;html=1;backgroundOutline=1;" vertex="1" parent="1">
          <mxGeometry x="329.2299999999999" y="1454" width="20" height="20" as="geometry" />
        </mxCell>
        <mxCell id="kQ3vYmZmV89KcB6vO9J0-294" value="" style="endArrow=classic;html=1;rounded=0;fontSize=12;startSize=8;endSize=8;curved=1;strokeWidth=2;entryX=0;entryY=0.5;entryDx=0;entryDy=0;" edge="1" parent="1" target="kQ3vYmZmV89KcB6vO9J0-293">
          <mxGeometry width="50" height="50" relative="1" as="geometry">
            <mxPoint x="259.2299999999999" y="1464" as="sourcePoint" />
            <mxPoint x="288.9699999999999" y="1463.71" as="targetPoint" />
          </mxGeometry>
        </mxCell>
        <mxCell id="kQ3vYmZmV89KcB6vO9J0-295" value="" style="endArrow=classic;html=1;rounded=0;fontSize=12;startSize=8;endSize=8;curved=1;strokeWidth=2;entryX=0;entryY=0.5;entryDx=0;entryDy=0;" edge="1" parent="1">
          <mxGeometry width="50" height="50" relative="1" as="geometry">
            <mxPoint x="419.2299999999999" y="1463.71" as="sourcePoint" />
            <mxPoint x="349.2299999999999" y="1463.71" as="targetPoint" />
          </mxGeometry>
        </mxCell>
        <mxCell id="kQ3vYmZmV89KcB6vO9J0-297" value="" style="verticalLabelPosition=bottom;verticalAlign=top;html=1;shape=mxgraph.flowchart.or;" vertex="1" parent="1">
          <mxGeometry x="329.2299999999999" y="1414" width="20" height="20" as="geometry" />
        </mxCell>
        <mxCell id="kQ3vYmZmV89KcB6vO9J0-298" value="" style="endArrow=classic;html=1;rounded=0;fontSize=12;startSize=8;endSize=8;curved=1;strokeWidth=2;" edge="1" parent="1">
          <mxGeometry width="50" height="50" relative="1" as="geometry">
            <mxPoint x="339.2299999999999" y="1454" as="sourcePoint" />
            <mxPoint x="339.2299999999999" y="1434" as="targetPoint" />
          </mxGeometry>
        </mxCell>
        <mxCell id="kQ3vYmZmV89KcB6vO9J0-299" value="" style="endArrow=classic;html=1;rounded=0;fontSize=12;startSize=8;endSize=8;curved=1;strokeWidth=2;entryX=0;entryY=0.5;entryDx=0;entryDy=0;" edge="1" parent="1">
          <mxGeometry width="50" height="50" relative="1" as="geometry">
            <mxPoint x="505" y="1424" as="sourcePoint" />
            <mxPoint x="350" y="1424" as="targetPoint" />
          </mxGeometry>
        </mxCell>
        <mxCell id="kQ3vYmZmV89KcB6vO9J0-300" style="edgeStyle=none;curved=1;rounded=0;orthogonalLoop=1;jettySize=auto;html=1;fontSize=12;startSize=8;endSize=8;strokeWidth=2;endArrow=none;startFill=0;" edge="1" parent="1">
          <mxGeometry relative="1" as="geometry">
            <mxPoint x="504.22999999999985" y="1424" as="sourcePoint" />
            <mxPoint x="504.22999999999985" y="1689" as="targetPoint" />
          </mxGeometry>
        </mxCell>
        <mxCell id="kQ3vYmZmV89KcB6vO9J0-301" style="edgeStyle=none;curved=1;rounded=0;orthogonalLoop=1;jettySize=auto;html=1;fontSize=12;startSize=8;endSize=8;strokeWidth=2;endArrow=none;startFill=0;" edge="1" parent="1">
          <mxGeometry relative="1" as="geometry">
            <mxPoint x="400" y="1690" as="sourcePoint" />
            <mxPoint x="505" y="1690" as="targetPoint" />
          </mxGeometry>
        </mxCell>
        <mxCell id="kQ3vYmZmV89KcB6vO9J0-302" value="Project" style="rounded=0;whiteSpace=wrap;html=1;fontSize=24;strokeWidth=2;" vertex="1" parent="1">
          <mxGeometry x="279.2299999999999" y="1364" width="120" height="30" as="geometry" />
        </mxCell>
        <mxCell id="kQ3vYmZmV89KcB6vO9J0-303" value="" style="endArrow=classic;html=1;rounded=0;fontSize=12;startSize=8;endSize=8;curved=1;strokeWidth=2;" edge="1" parent="1">
          <mxGeometry width="50" height="50" relative="1" as="geometry">
            <mxPoint x="339.2299999999999" y="1414" as="sourcePoint" />
            <mxPoint x="339.2299999999999" y="1394" as="targetPoint" />
          </mxGeometry>
        </mxCell>
        <mxCell id="kQ3vYmZmV89KcB6vO9J0-307" value="" style="endArrow=classic;html=1;rounded=0;fontSize=12;startSize=8;endSize=8;curved=1;strokeWidth=2;" edge="1" parent="1">
          <mxGeometry width="50" height="50" relative="1" as="geometry">
            <mxPoint x="455" y="1495" as="sourcePoint" />
            <mxPoint x="430" y="1495" as="targetPoint" />
          </mxGeometry>
        </mxCell>
        <mxCell id="kQ3vYmZmV89KcB6vO9J0-308" value="" style="endArrow=classic;html=1;rounded=0;fontSize=12;startSize=8;endSize=8;curved=1;strokeWidth=2;" edge="1" parent="1">
          <mxGeometry width="50" height="50" relative="1" as="geometry">
            <mxPoint x="225" y="1494" as="sourcePoint" />
            <mxPoint x="250" y="1494" as="targetPoint" />
          </mxGeometry>
        </mxCell>
        <mxCell id="kQ3vYmZmV89KcB6vO9J0-309" value="&lt;font style=&quot;font-size: 24px;&quot;&gt;W2&lt;/font&gt;" style="text;html=1;align=center;verticalAlign=middle;whiteSpace=wrap;rounded=0;" vertex="1" parent="1">
          <mxGeometry x="456.22999999999985" y="1479" width="40" height="30" as="geometry" />
        </mxCell>
        <mxCell id="kQ3vYmZmV89KcB6vO9J0-310" value="&lt;font style=&quot;font-size: 24px;&quot;&gt;W1&lt;/font&gt;" style="text;html=1;align=center;verticalAlign=middle;whiteSpace=wrap;rounded=0;" vertex="1" parent="1">
          <mxGeometry x="183.2299999999999" y="1479" width="40" height="30" as="geometry" />
        </mxCell>
        <mxCell id="kQ3vYmZmV89KcB6vO9J0-311" value="&lt;font style=&quot;font-size: 25px;&quot;&gt;Query&lt;/font&gt;" style="text;html=1;align=center;verticalAlign=middle;whiteSpace=wrap;rounded=0;" vertex="1" parent="1">
          <mxGeometry x="220" y="1640" width="60" height="30" as="geometry" />
        </mxCell>
        <mxCell id="kQ3vYmZmV89KcB6vO9J0-312" value="&lt;font style=&quot;font-size: 25px;&quot;&gt;Key&lt;/font&gt;" style="text;html=1;align=center;verticalAlign=middle;whiteSpace=wrap;rounded=0;" vertex="1" parent="1">
          <mxGeometry x="385" y="1640" width="60" height="30" as="geometry" />
        </mxCell>
        <mxCell id="kQ3vYmZmV89KcB6vO9J0-313" value="&lt;font style=&quot;font-size: 24px;&quot;&gt;Value&lt;/font&gt;" style="text;html=1;align=center;verticalAlign=middle;whiteSpace=wrap;rounded=0;" vertex="1" parent="1">
          <mxGeometry x="430" y="1700" width="60" height="30" as="geometry" />
        </mxCell>
        <mxCell id="kQ3vYmZmV89KcB6vO9J0-316" value="" style="endArrow=classic;html=1;rounded=0;fontSize=12;startSize=8;endSize=8;curved=1;strokeWidth=2;" edge="1" parent="1">
          <mxGeometry width="50" height="50" relative="1" as="geometry">
            <mxPoint x="339.2299999999999" y="1734" as="sourcePoint" />
            <mxPoint x="339.2299999999999" y="1704" as="targetPoint" />
          </mxGeometry>
        </mxCell>
        <mxCell id="kQ3vYmZmV89KcB6vO9J0-317" value="" style="endArrow=classic;html=1;rounded=0;fontSize=12;startSize=8;endSize=8;curved=1;strokeWidth=2;" edge="1" parent="1">
          <mxGeometry width="50" height="50" relative="1" as="geometry">
            <mxPoint x="339.2299999999999" y="1364" as="sourcePoint" />
            <mxPoint x="339.2299999999999" y="1334" as="targetPoint" />
          </mxGeometry>
        </mxCell>
        <mxCell id="kQ3vYmZmV89KcB6vO9J0-318" value="&lt;font style=&quot;font-size: 24px;&quot;&gt;&lt;span style=&quot;font-family: Tahoma; font-style: italic;&quot;&gt;Adaptive Sparse&amp;nbsp;&lt;/span&gt;&lt;span style=&quot;font-family: Tahoma; font-style: italic;&quot;&gt;Self-Attention&lt;/span&gt;&lt;/font&gt;" style="text;whiteSpace=wrap;html=1;align=center;verticalAlign=middle;" vertex="1" parent="1">
          <mxGeometry x="170" y="1290" width="350" height="40" as="geometry" />
        </mxCell>
        <mxCell id="kQ3vYmZmV89KcB6vO9J0-319" value="" style="edgeStyle=none;curved=1;rounded=0;orthogonalLoop=1;jettySize=auto;html=1;fontSize=12;startSize=8;endSize=8;" edge="1" parent="1">
          <mxGeometry relative="1" as="geometry">
            <mxPoint x="1378.3699999999997" y="1583" as="sourcePoint" />
            <mxPoint x="1378.3699999999997" y="1563" as="targetPoint" />
          </mxGeometry>
        </mxCell>
        <mxCell id="kQ3vYmZmV89KcB6vO9J0-320" value="" style="edgeStyle=none;curved=1;rounded=0;orthogonalLoop=1;jettySize=auto;html=1;fontSize=12;startSize=8;endSize=8;" edge="1" parent="1">
          <mxGeometry relative="1" as="geometry">
            <mxPoint x="1408.3699999999997" y="1583" as="sourcePoint" />
            <mxPoint x="1408.3699999999997" y="1563" as="targetPoint" />
          </mxGeometry>
        </mxCell>
        <mxCell id="kQ3vYmZmV89KcB6vO9J0-322" value="" style="edgeStyle=none;curved=1;rounded=0;orthogonalLoop=1;jettySize=auto;html=1;fontSize=12;startSize=8;endSize=8;" edge="1" parent="1">
          <mxGeometry relative="1" as="geometry">
            <mxPoint x="1222.7399999999996" y="1583" as="sourcePoint" />
            <mxPoint x="1222.7399999999996" y="1563" as="targetPoint" />
          </mxGeometry>
        </mxCell>
        <mxCell id="kQ3vYmZmV89KcB6vO9J0-323" value="" style="edgeStyle=none;curved=1;rounded=0;orthogonalLoop=1;jettySize=auto;html=1;fontSize=12;startSize=8;endSize=8;" edge="1" parent="1">
          <mxGeometry relative="1" as="geometry">
            <mxPoint x="1252.7399999999996" y="1583" as="sourcePoint" />
            <mxPoint x="1252.7399999999996" y="1563" as="targetPoint" />
          </mxGeometry>
        </mxCell>
        <mxCell id="kQ3vYmZmV89KcB6vO9J0-325" value="" style="verticalAlign=top;align=left;spacingTop=8;spacingLeft=2;spacingRight=12;shape=cube;size=10;direction=south;fontStyle=4;html=1;whiteSpace=wrap;movable=1;resizable=1;rotatable=1;deletable=1;editable=1;locked=0;connectable=1;container=0;fillColor=#6A8CAF;strokeColor=#000000;" vertex="1" parent="1">
          <mxGeometry x="1215.9899999999998" y="1334" width="40" height="40" as="geometry" />
        </mxCell>
        <mxCell id="kQ3vYmZmV89KcB6vO9J0-326" value="" style="verticalAlign=top;align=left;spacingTop=8;spacingLeft=2;spacingRight=12;shape=cube;size=10;direction=south;fontStyle=4;html=1;whiteSpace=wrap;movable=1;resizable=1;rotatable=1;deletable=1;editable=1;locked=0;connectable=1;container=0;fillColor=#6A8CAF;strokeColor=#000000;" vertex="1" parent="1">
          <mxGeometry x="1245.9899999999998" y="1334" width="40" height="40" as="geometry" />
        </mxCell>
        <mxCell id="kQ3vYmZmV89KcB6vO9J0-327" value="" style="verticalAlign=top;align=left;spacingTop=8;spacingLeft=2;spacingRight=12;shape=cube;size=10;direction=south;fontStyle=4;html=1;whiteSpace=wrap;movable=1;resizable=1;rotatable=1;deletable=1;editable=1;locked=0;connectable=1;container=0;fillColor=#999C7E;strokeColor=#000000;" vertex="1" parent="1">
          <mxGeometry x="1185.9899999999998" y="1414" width="40" height="40" as="geometry" />
        </mxCell>
        <mxCell id="kQ3vYmZmV89KcB6vO9J0-332" value="" style="verticalAlign=top;align=left;spacingTop=8;spacingLeft=2;spacingRight=12;shape=cube;size=10;direction=south;fontStyle=4;html=1;whiteSpace=wrap;movable=1;resizable=1;rotatable=1;deletable=1;editable=1;locked=0;connectable=1;container=0;fillColor=#999C7E;strokeColor=#000000;" vertex="1" parent="1">
          <mxGeometry x="1215.9899999999998" y="1414" width="40" height="40" as="geometry" />
        </mxCell>
        <mxCell id="kQ3vYmZmV89KcB6vO9J0-333" value="" style="verticalAlign=top;align=left;spacingTop=8;spacingLeft=2;spacingRight=12;shape=cube;size=10;direction=south;fontStyle=4;html=1;whiteSpace=wrap;movable=1;resizable=1;rotatable=1;deletable=1;editable=1;locked=0;connectable=1;container=0;fillColor=#999C7E;strokeColor=#000000;" vertex="1" parent="1">
          <mxGeometry x="1245.9899999999998" y="1414" width="40" height="40" as="geometry" />
        </mxCell>
        <mxCell id="kQ3vYmZmV89KcB6vO9J0-232" value="" style="verticalAlign=top;align=left;spacingTop=8;spacingLeft=2;spacingRight=12;shape=cube;size=10;direction=south;fontStyle=4;html=1;whiteSpace=wrap;movable=1;resizable=1;rotatable=1;deletable=1;editable=1;locked=0;connectable=1;container=0;fillColor=#4C9B9B;strokeColor=#000000;" vertex="1" parent="1">
          <mxGeometry x="492.12" y="2055.5" width="40" height="40" as="geometry" />
        </mxCell>
        <mxCell id="kQ3vYmZmV89KcB6vO9J0-233" value="" style="verticalAlign=top;align=left;spacingTop=8;spacingLeft=2;spacingRight=12;shape=cube;size=10;direction=south;fontStyle=4;html=1;whiteSpace=wrap;movable=1;resizable=1;rotatable=1;deletable=1;editable=1;locked=0;connectable=1;container=0;fillColor=#4C9B9B;strokeColor=#000000;" vertex="1" parent="1">
          <mxGeometry x="522.12" y="2055.5" width="40" height="40" as="geometry" />
        </mxCell>
        <mxCell id="kQ3vYmZmV89KcB6vO9J0-234" value="" style="verticalAlign=top;align=left;spacingTop=8;spacingLeft=2;spacingRight=12;shape=cube;size=10;direction=south;fontStyle=4;html=1;whiteSpace=wrap;movable=1;resizable=1;rotatable=1;deletable=1;editable=1;locked=0;connectable=1;container=0;fillColor=#4C9B9B;strokeColor=#000000;" vertex="1" parent="1">
          <mxGeometry x="552.12" y="2055.5" width="40" height="40" as="geometry" />
        </mxCell>
        <mxCell id="kQ3vYmZmV89KcB6vO9J0-236" value="" style="verticalAlign=top;align=left;spacingTop=8;spacingLeft=2;spacingRight=12;shape=cube;size=10;direction=south;fontStyle=4;html=1;whiteSpace=wrap;movable=1;resizable=1;rotatable=1;deletable=1;editable=1;locked=0;connectable=1;container=0;fillColor=#907EA3;strokeColor=#000000;fillStyle=solid;" vertex="1" parent="1">
          <mxGeometry x="482.12" y="2065.5" width="40" height="40" as="geometry" />
        </mxCell>
        <mxCell id="kQ3vYmZmV89KcB6vO9J0-237" value="" style="verticalAlign=top;align=left;spacingTop=8;spacingLeft=2;spacingRight=12;shape=cube;size=10;direction=south;fontStyle=4;html=1;whiteSpace=wrap;movable=1;resizable=1;rotatable=1;deletable=1;editable=1;locked=0;connectable=1;container=0;fillColor=#907EA3;strokeColor=#000000;fillStyle=solid;" vertex="1" parent="1">
          <mxGeometry x="512.12" y="2065.5" width="40" height="40" as="geometry" />
        </mxCell>
        <mxCell id="kQ3vYmZmV89KcB6vO9J0-238" value="" style="verticalAlign=top;align=left;spacingTop=8;spacingLeft=2;spacingRight=12;shape=cube;size=10;direction=south;fontStyle=4;html=1;whiteSpace=wrap;movable=1;resizable=1;rotatable=1;deletable=1;editable=1;locked=0;connectable=1;container=0;fillColor=#907EA3;strokeColor=#000000;fillStyle=solid;" vertex="1" parent="1">
          <mxGeometry x="542.12" y="2065.5" width="40" height="40" as="geometry" />
        </mxCell>
        <mxCell id="kQ3vYmZmV89KcB6vO9J0-223" value="" style="verticalAlign=top;align=left;spacingTop=8;spacingLeft=2;spacingRight=12;shape=cube;size=10;direction=south;fontStyle=4;html=1;whiteSpace=wrap;movable=1;resizable=1;rotatable=1;deletable=1;editable=1;locked=0;connectable=1;container=0;fillColor=#999C7E;strokeColor=#000000;" vertex="1" parent="1">
          <mxGeometry x="472.12" y="2075.5" width="40" height="40" as="geometry" />
        </mxCell>
        <mxCell id="kQ3vYmZmV89KcB6vO9J0-240" value="" style="verticalAlign=top;align=left;spacingTop=8;spacingLeft=2;spacingRight=12;shape=cube;size=10;direction=south;fontStyle=4;html=1;whiteSpace=wrap;movable=1;resizable=1;rotatable=1;deletable=1;editable=1;locked=0;connectable=1;container=0;fillColor=#999C7E;strokeColor=#000000;" vertex="1" parent="1">
          <mxGeometry x="502.12" y="2075.5" width="40" height="40" as="geometry" />
        </mxCell>
        <mxCell id="kQ3vYmZmV89KcB6vO9J0-241" value="" style="verticalAlign=top;align=left;spacingTop=8;spacingLeft=2;spacingRight=12;shape=cube;size=10;direction=south;fontStyle=4;html=1;whiteSpace=wrap;movable=1;resizable=1;rotatable=1;deletable=1;editable=1;locked=0;connectable=1;container=0;fillColor=#999C7E;strokeColor=#000000;" vertex="1" parent="1">
          <mxGeometry x="532.12" y="2075.5" width="40" height="40" as="geometry" />
        </mxCell>
        <mxCell id="kQ3vYmZmV89KcB6vO9J0-206" value="" style="verticalAlign=top;align=left;spacingTop=8;spacingLeft=2;spacingRight=12;shape=cube;size=10;direction=south;fontStyle=4;html=1;whiteSpace=wrap;movable=1;resizable=1;rotatable=1;deletable=1;editable=1;locked=0;connectable=1;container=0;fillColor=#6A8CAF;strokeColor=#000000;" vertex="1" parent="1">
          <mxGeometry x="150.12" y="2065.5" width="40" height="40" as="geometry" />
        </mxCell>
        <mxCell id="kQ3vYmZmV89KcB6vO9J0-207" value="" style="verticalAlign=top;align=left;spacingTop=8;spacingLeft=2;spacingRight=12;shape=cube;size=10;direction=south;fontStyle=4;html=1;whiteSpace=wrap;movable=1;resizable=1;rotatable=1;deletable=1;editable=1;locked=0;connectable=1;container=0;fillColor=#6A8CAF;strokeColor=#000000;" vertex="1" parent="1">
          <mxGeometry x="140.12" y="2075.5" width="40" height="40" as="geometry" />
        </mxCell>
        <mxCell id="kQ3vYmZmV89KcB6vO9J0-215" value="" style="verticalAlign=top;align=left;spacingTop=8;spacingLeft=2;spacingRight=12;shape=cube;size=10;direction=south;fontStyle=4;html=1;whiteSpace=wrap;movable=1;resizable=1;rotatable=1;deletable=1;editable=1;locked=0;connectable=1;container=0;fillColor=#4C9B9B;strokeColor=#000000;" vertex="1" parent="1">
          <mxGeometry x="180.12" y="2065.5" width="40" height="40" as="geometry" />
        </mxCell>
        <mxCell id="kQ3vYmZmV89KcB6vO9J0-216" value="" style="verticalAlign=top;align=left;spacingTop=8;spacingLeft=2;spacingRight=12;shape=cube;size=10;direction=south;fontStyle=4;html=1;whiteSpace=wrap;movable=1;resizable=1;rotatable=1;deletable=1;editable=1;locked=0;connectable=1;container=0;fillColor=#4C9B9B;strokeColor=#000000;" vertex="1" parent="1">
          <mxGeometry x="210.12" y="2065.5" width="40" height="40" as="geometry" />
        </mxCell>
        <mxCell id="kQ3vYmZmV89KcB6vO9J0-217" value="" style="verticalAlign=top;align=left;spacingTop=8;spacingLeft=2;spacingRight=12;shape=cube;size=10;direction=south;fontStyle=4;html=1;whiteSpace=wrap;movable=1;resizable=1;rotatable=1;deletable=1;editable=1;locked=0;connectable=1;container=0;fillColor=#4C9B9B;strokeColor=#000000;" vertex="1" parent="1">
          <mxGeometry x="240.12" y="2065.5" width="40" height="40" as="geometry" />
        </mxCell>
        <mxCell id="kQ3vYmZmV89KcB6vO9J0-219" value="" style="verticalAlign=top;align=left;spacingTop=8;spacingLeft=2;spacingRight=12;shape=cube;size=10;direction=south;fontStyle=4;html=1;whiteSpace=wrap;movable=1;resizable=1;rotatable=1;deletable=1;editable=1;locked=0;connectable=1;container=0;fillColor=#907EA3;strokeColor=#000000;fillStyle=solid;" vertex="1" parent="1">
          <mxGeometry x="170.12" y="2075.5" width="40" height="40" as="geometry" />
        </mxCell>
        <mxCell id="kQ3vYmZmV89KcB6vO9J0-220" value="" style="verticalAlign=top;align=left;spacingTop=8;spacingLeft=2;spacingRight=12;shape=cube;size=10;direction=south;fontStyle=4;html=1;whiteSpace=wrap;movable=1;resizable=1;rotatable=1;deletable=1;editable=1;locked=0;connectable=1;container=0;fillColor=#907EA3;strokeColor=#000000;fillStyle=solid;" vertex="1" parent="1">
          <mxGeometry x="200.12" y="2075.5" width="40" height="40" as="geometry" />
        </mxCell>
        <mxCell id="kQ3vYmZmV89KcB6vO9J0-221" value="" style="verticalAlign=top;align=left;spacingTop=8;spacingLeft=2;spacingRight=12;shape=cube;size=10;direction=south;fontStyle=4;html=1;whiteSpace=wrap;movable=1;resizable=1;rotatable=1;deletable=1;editable=1;locked=0;connectable=1;container=0;fillColor=#907EA3;strokeColor=#000000;fillStyle=solid;" vertex="1" parent="1">
          <mxGeometry x="230.12" y="2075.5" width="40" height="40" as="geometry" />
        </mxCell>
        <mxCell id="kQ3vYmZmV89KcB6vO9J0-337" value="" style="edgeStyle=none;curved=1;rounded=0;orthogonalLoop=1;jettySize=auto;html=1;fontSize=12;startSize=8;endSize=8;" edge="1" parent="1">
          <mxGeometry relative="1" as="geometry">
            <mxPoint x="401.21999999999997" y="1851" as="sourcePoint" />
            <mxPoint x="401.21999999999997" y="1831" as="targetPoint" />
          </mxGeometry>
        </mxCell>
        <mxCell id="kQ3vYmZmV89KcB6vO9J0-338" value="" style="endArrow=classic;html=1;rounded=0;fontSize=12;startSize=8;endSize=8;curved=1;strokeWidth=2;" edge="1" parent="1">
          <mxGeometry width="50" height="50" relative="1" as="geometry">
            <mxPoint x="1300.9899999999998" y="1434" as="sourcePoint" />
            <mxPoint x="1380.9899999999998" y="1434" as="targetPoint" />
          </mxGeometry>
        </mxCell>
        <mxCell id="kQ3vYmZmV89KcB6vO9J0-339" value="" style="endArrow=classic;html=1;rounded=0;fontSize=12;startSize=8;endSize=8;curved=1;strokeWidth=2;" edge="1" parent="1">
          <mxGeometry width="50" height="50" relative="1" as="geometry">
            <mxPoint x="1300.9899999999998" y="1354" as="sourcePoint" />
            <mxPoint x="1380.9899999999998" y="1354" as="targetPoint" />
          </mxGeometry>
        </mxCell>
        <mxCell id="kQ3vYmZmV89KcB6vO9J0-340" value="" style="verticalAlign=top;align=left;spacingTop=8;spacingLeft=2;spacingRight=12;shape=cube;size=10;direction=south;fontStyle=4;html=1;whiteSpace=wrap;movable=1;resizable=1;rotatable=1;deletable=1;editable=1;locked=0;connectable=1;container=0;fillColor=#999C7E;strokeColor=#000000;" vertex="1" parent="1">
          <mxGeometry x="1400.9899999999998" y="1414" width="40" height="40" as="geometry" />
        </mxCell>
        <mxCell id="kQ3vYmZmV89KcB6vO9J0-342" value="" style="verticalAlign=top;align=left;spacingTop=8;spacingLeft=2;spacingRight=12;shape=cube;size=10;direction=south;fontStyle=4;html=1;whiteSpace=wrap;movable=1;resizable=1;rotatable=1;deletable=1;editable=1;locked=0;connectable=1;container=0;fillColor=#6A8CAF;strokeColor=#000000;" vertex="1" parent="1">
          <mxGeometry x="1400.9899999999998" y="1334" width="40" height="40" as="geometry" />
        </mxCell>
        <mxCell id="kQ3vYmZmV89KcB6vO9J0-346" value="" style="endArrow=classic;html=1;rounded=0;fontSize=12;startSize=8;endSize=8;curved=1;strokeWidth=2;" edge="1" parent="1">
          <mxGeometry width="50" height="50" relative="1" as="geometry">
            <mxPoint x="1460.9899999999998" y="1394" as="sourcePoint" />
            <mxPoint x="1490.9899999999998" y="1394" as="targetPoint" />
          </mxGeometry>
        </mxCell>
        <mxCell id="kQ3vYmZmV89KcB6vO9J0-349" value="" style="verticalAlign=top;align=left;spacingTop=8;spacingLeft=2;spacingRight=12;shape=cube;size=10;direction=south;fontStyle=4;html=1;whiteSpace=wrap;movable=1;resizable=1;rotatable=1;deletable=1;editable=1;locked=0;connectable=1;container=0;fillColor=#6A8CAF;strokeColor=#000000;" vertex="1" parent="1">
          <mxGeometry x="1500.9899999999998" y="1374" width="40" height="40" as="geometry" />
        </mxCell>
        <mxCell id="kQ3vYmZmV89KcB6vO9J0-350" value="" style="verticalAlign=top;align=left;spacingTop=8;spacingLeft=2;spacingRight=12;shape=cube;size=10;direction=south;fontStyle=4;html=1;whiteSpace=wrap;movable=1;resizable=1;rotatable=1;deletable=1;editable=1;locked=0;connectable=1;container=0;fillColor=#999C7E;strokeColor=#000000;" vertex="1" parent="1">
          <mxGeometry x="1530.9899999999998" y="1374" width="40" height="40" as="geometry" />
        </mxCell>
        <mxCell id="kQ3vYmZmV89KcB6vO9J0-351" value="&lt;font style=&quot;font-size: 24px;&quot; face=&quot;Tahoma&quot;&gt;&lt;i style=&quot;&quot;&gt;Concat&lt;/i&gt;&lt;/font&gt;" style="text;whiteSpace=wrap;html=1;align=center;" vertex="1" parent="1">
          <mxGeometry x="1446.99" y="1301" width="100.12" height="40" as="geometry" />
        </mxCell>
        <mxCell id="kQ3vYmZmV89KcB6vO9J0-356" style="edgeStyle=none;curved=1;rounded=0;orthogonalLoop=1;jettySize=auto;html=1;fontSize=12;startSize=8;endSize=8;strokeWidth=5;" edge="1" parent="1">
          <mxGeometry relative="1" as="geometry">
            <mxPoint x="840" y="2195" as="sourcePoint" />
            <mxPoint x="840" y="2160" as="targetPoint" />
          </mxGeometry>
        </mxCell>
        <mxCell id="kQ3vYmZmV89KcB6vO9J0-371" value="&lt;font style=&quot;font-size: 24px;&quot; face=&quot;Tahoma&quot;&gt;&lt;i style=&quot;&quot;&gt;Mean&lt;/i&gt;&lt;/font&gt;" style="text;whiteSpace=wrap;html=1;align=center;" vertex="1" parent="1">
          <mxGeometry x="1289.37" y="1314" width="100" height="40" as="geometry" />
        </mxCell>
        <mxCell id="kQ3vYmZmV89KcB6vO9J0-373" value="&lt;font style=&quot;font-size: 24px;&quot; face=&quot;Tahoma&quot;&gt;&lt;i style=&quot;&quot;&gt;Mean&lt;/i&gt;&lt;/font&gt;" style="text;whiteSpace=wrap;html=1;align=center;" vertex="1" parent="1">
          <mxGeometry x="1289.37" y="1394" width="100" height="40" as="geometry" />
        </mxCell>
        <mxCell id="kQ3vYmZmV89KcB6vO9J0-374" style="edgeStyle=none;curved=1;rounded=0;orthogonalLoop=1;jettySize=auto;html=1;fontSize=12;startSize=8;endSize=8;strokeWidth=5;" edge="1" parent="1">
          <mxGeometry relative="1" as="geometry">
            <mxPoint x="840" y="2100" as="sourcePoint" />
            <mxPoint x="840" y="2064" as="targetPoint" />
          </mxGeometry>
        </mxCell>
        <mxCell id="kQ3vYmZmV89KcB6vO9J0-381" value="&lt;font face=&quot;Tahoma&quot; style=&quot;font-size: 24px;&quot;&gt;Input&lt;/font&gt;" style="text;whiteSpace=wrap;html=1;align=center;fontStyle=2" vertex="1" parent="1">
          <mxGeometry x="740" y="2185" width="200" height="40" as="geometry" />
        </mxCell>
        <mxCell id="kQ3vYmZmV89KcB6vO9J0-382" value="" style="rounded=0;whiteSpace=wrap;html=1;" vertex="1" parent="1">
          <mxGeometry x="1164.37" y="1749" width="440" height="455" as="geometry" />
        </mxCell>
        <mxCell id="kQ3vYmZmV89KcB6vO9J0-383" value="" style="verticalAlign=top;align=left;spacingTop=8;spacingLeft=2;spacingRight=12;shape=cube;size=10;direction=south;fontStyle=4;html=1;whiteSpace=wrap;movable=1;resizable=1;rotatable=1;deletable=1;editable=1;locked=0;connectable=1;container=0;fillColor=#6A8CAF;strokeColor=#000000;" vertex="1" parent="1">
          <mxGeometry x="100.26" y="2135.5" width="40" height="40" as="geometry" />
        </mxCell>
        <mxCell id="kQ3vYmZmV89KcB6vO9J0-384" value="" style="verticalAlign=top;align=left;spacingTop=8;spacingLeft=2;spacingRight=12;shape=cube;size=10;direction=south;fontStyle=4;html=1;whiteSpace=wrap;movable=1;resizable=1;rotatable=1;deletable=1;editable=1;locked=0;connectable=1;container=0;fillColor=#999C7E;strokeColor=#000000;" vertex="1" parent="1">
          <mxGeometry x="391.26" y="2135.5" width="40" height="40" as="geometry" />
        </mxCell>
        <mxCell id="kQ3vYmZmV89KcB6vO9J0-385" value="&lt;font style=&quot;font-size: 24px;&quot; face=&quot;Tahoma&quot;&gt;&lt;i style=&quot;&quot;&gt;: (DIM) Global Token&lt;/i&gt;&lt;/font&gt;" style="text;whiteSpace=wrap;html=1;align=left;" vertex="1" parent="1">
          <mxGeometry x="147.51" y="2133.5" width="228.49" height="40" as="geometry" />
        </mxCell>
        <mxCell id="kQ3vYmZmV89KcB6vO9J0-386" value="&lt;font style=&quot;font-size: 24px;&quot; face=&quot;Tahoma&quot;&gt;&lt;i style=&quot;&quot;&gt;: (ENC) Global Token&lt;/i&gt;&lt;/font&gt;" style="text;whiteSpace=wrap;html=1;align=left;" vertex="1" parent="1">
          <mxGeometry x="438.89" y="2133.5" width="237.11" height="40" as="geometry" />
        </mxCell>
        <mxCell id="kQ3vYmZmV89KcB6vO9J0-387" style="edgeStyle=none;curved=1;rounded=0;orthogonalLoop=1;jettySize=auto;html=1;fontSize=12;startSize=8;endSize=8;strokeWidth=3;endArrow=none;startFill=0;spacing=2;" edge="1" parent="1">
          <mxGeometry relative="1" as="geometry">
            <mxPoint x="380" y="2123" as="sourcePoint" />
            <mxPoint x="380" y="2043" as="targetPoint" />
          </mxGeometry>
        </mxCell>
        <mxCell id="kQ3vYmZmV89KcB6vO9J0-390" value="&lt;font style=&quot;font-size: 24px;&quot;&gt;Raw Data&lt;/font&gt;" style="shape=parallelogram;html=1;strokeWidth=2;perimeter=parallelogramPerimeter;whiteSpace=wrap;rounded=1;arcSize=0;size=0.23;" vertex="1" parent="1">
          <mxGeometry x="1387.87" y="2147.5" width="180" height="40" as="geometry" />
        </mxCell>
        <mxCell id="kQ3vYmZmV89KcB6vO9J0-395" style="edgeStyle=none;curved=1;rounded=0;orthogonalLoop=1;jettySize=auto;html=1;fontSize=12;startSize=8;endSize=8;strokeWidth=3;" edge="1" parent="1">
          <mxGeometry relative="1" as="geometry">
            <mxPoint x="1487.87" y="2107.5" as="targetPoint" />
            <mxPoint x="1487.87" y="2147.5" as="sourcePoint" />
          </mxGeometry>
        </mxCell>
        <mxCell id="kQ3vYmZmV89KcB6vO9J0-403" value="&lt;font style=&quot;font-size: 24px;&quot;&gt;Raw Data&lt;/font&gt;" style="shape=parallelogram;html=1;strokeWidth=2;perimeter=parallelogramPerimeter;whiteSpace=wrap;rounded=1;arcSize=0;size=0.23;" vertex="1" parent="1">
          <mxGeometry x="1187.87" y="2147.5" width="180" height="40" as="geometry" />
        </mxCell>
        <mxCell id="kQ3vYmZmV89KcB6vO9J0-404" value="&lt;font style=&quot;font-size: 24px;&quot;&gt;Feature Tokenization&lt;/font&gt;" style="rounded=1;whiteSpace=wrap;html=1;absoluteArcSize=1;arcSize=14;strokeWidth=2;" vertex="1" parent="1">
          <mxGeometry x="1187.87" y="1947.5" width="400" height="40" as="geometry" />
        </mxCell>
        <mxCell id="kQ3vYmZmV89KcB6vO9J0-443" style="edgeStyle=none;curved=1;rounded=0;orthogonalLoop=1;jettySize=auto;html=1;fontSize=12;startSize=8;endSize=8;entryX=0.5;entryY=1;entryDx=0;entryDy=0;strokeWidth=3;" edge="1" parent="1" source="kQ3vYmZmV89KcB6vO9J0-404" target="kQ3vYmZmV89KcB6vO9J0-445">
          <mxGeometry relative="1" as="geometry">
            <mxPoint x="1198.12" y="1575.5" as="targetPoint" />
            <mxPoint x="1197.83" y="1855.5" as="sourcePoint" />
          </mxGeometry>
        </mxCell>
        <mxCell id="kQ3vYmZmV89KcB6vO9J0-445" value="&lt;font style=&quot;font-size: 24px;&quot;&gt;Parallel Concatenation&lt;/font&gt;" style="rounded=1;whiteSpace=wrap;html=1;absoluteArcSize=1;arcSize=14;strokeWidth=2;" vertex="1" parent="1">
          <mxGeometry x="1188.87" y="1828" width="400" height="40" as="geometry" />
        </mxCell>
        <mxCell id="kQ3vYmZmV89KcB6vO9J0-486" value="&lt;span style=&quot;font-size: 24px;&quot;&gt;Target Aware Preprocessing&lt;/span&gt;" style="rounded=1;whiteSpace=wrap;html=1;absoluteArcSize=1;arcSize=14;strokeWidth=2;" vertex="1" parent="1">
          <mxGeometry x="1387.87" y="2027.5" width="200" height="80" as="geometry" />
        </mxCell>
        <mxCell id="kQ3vYmZmV89KcB6vO9J0-488" style="edgeStyle=none;curved=1;rounded=0;orthogonalLoop=1;jettySize=auto;html=1;fontSize=12;startSize=8;endSize=8;strokeWidth=3;entryX=0.263;entryY=1.036;entryDx=0;entryDy=0;entryPerimeter=0;" edge="1" parent="1">
          <mxGeometry relative="1" as="geometry">
            <mxPoint x="1287.87" y="1988.94" as="targetPoint" />
            <mxPoint x="1287.87" y="2147.5" as="sourcePoint" />
          </mxGeometry>
        </mxCell>
        <mxCell id="kQ3vYmZmV89KcB6vO9J0-489" style="edgeStyle=none;curved=1;rounded=0;orthogonalLoop=1;jettySize=auto;html=1;fontSize=12;startSize=8;endSize=8;strokeWidth=3;" edge="1" parent="1">
          <mxGeometry relative="1" as="geometry">
            <mxPoint x="1487.87" y="1988.5" as="targetPoint" />
            <mxPoint x="1487.87" y="2028.5" as="sourcePoint" />
          </mxGeometry>
        </mxCell>
        <mxCell id="kQ3vYmZmV89KcB6vO9J0-490" value="" style="whiteSpace=wrap;html=1;aspect=fixed;fillColor=#4C9B9B;strokeColor=#000000;" vertex="1" parent="1">
          <mxGeometry x="1200" y="2065" width="20" height="20" as="geometry" />
        </mxCell>
        <mxCell id="kQ3vYmZmV89KcB6vO9J0-491" value="" style="whiteSpace=wrap;html=1;aspect=fixed;fillColor=#4C9B9B;strokeColor=#000000;" vertex="1" parent="1">
          <mxGeometry x="1220" y="2065" width="20" height="20" as="geometry" />
        </mxCell>
        <mxCell id="kQ3vYmZmV89KcB6vO9J0-492" value="" style="whiteSpace=wrap;html=1;aspect=fixed;fillColor=#4C9B9B;strokeColor=#000000;" vertex="1" parent="1">
          <mxGeometry x="1240" y="2065" width="20" height="20" as="geometry" />
        </mxCell>
        <mxCell id="kQ3vYmZmV89KcB6vO9J0-496" value="" style="whiteSpace=wrap;html=1;aspect=fixed;fillColor=#907EA3;strokeColor=#000000;" vertex="1" parent="1">
          <mxGeometry x="1510" y="1998" width="20" height="20" as="geometry" />
        </mxCell>
        <mxCell id="kQ3vYmZmV89KcB6vO9J0-499" value="" style="verticalAlign=top;align=left;spacingTop=8;spacingLeft=2;spacingRight=12;shape=cube;size=10;direction=south;fontStyle=4;html=1;whiteSpace=wrap;movable=1;resizable=1;rotatable=1;deletable=1;editable=1;locked=0;connectable=1;container=0;fillColor=#4C9B9B;strokeColor=#000000;" vertex="1" parent="1">
          <mxGeometry x="1247.87" y="1887.5" width="40" height="40" as="geometry" />
        </mxCell>
        <mxCell id="kQ3vYmZmV89KcB6vO9J0-500" value="" style="verticalAlign=top;align=left;spacingTop=8;spacingLeft=2;spacingRight=12;shape=cube;size=10;direction=south;fontStyle=4;html=1;whiteSpace=wrap;movable=1;resizable=1;rotatable=1;deletable=1;editable=1;locked=0;connectable=1;container=0;fillColor=#4C9B9B;strokeColor=#000000;" vertex="1" parent="1">
          <mxGeometry x="1277.87" y="1887.5" width="40" height="40" as="geometry" />
        </mxCell>
        <mxCell id="kQ3vYmZmV89KcB6vO9J0-501" value="" style="verticalAlign=top;align=left;spacingTop=8;spacingLeft=2;spacingRight=12;shape=cube;size=10;direction=south;fontStyle=4;html=1;whiteSpace=wrap;movable=1;resizable=1;rotatable=1;deletable=1;editable=1;locked=0;connectable=1;container=0;fillColor=#4C9B9B;strokeColor=#000000;" vertex="1" parent="1">
          <mxGeometry x="1307.87" y="1887.5" width="40" height="40" as="geometry" />
        </mxCell>
        <mxCell id="kQ3vYmZmV89KcB6vO9J0-502" value="" style="verticalAlign=top;align=left;spacingTop=8;spacingLeft=2;spacingRight=12;shape=cube;size=10;direction=south;fontStyle=4;html=1;whiteSpace=wrap;movable=1;resizable=1;rotatable=1;deletable=1;editable=1;locked=0;connectable=1;container=0;fillColor=#907EA3;strokeColor=#000000;fillStyle=solid;" vertex="1" parent="1">
          <mxGeometry x="1427.87" y="1887.5" width="40" height="40" as="geometry" />
        </mxCell>
        <mxCell id="kQ3vYmZmV89KcB6vO9J0-503" value="" style="verticalAlign=top;align=left;spacingTop=8;spacingLeft=2;spacingRight=12;shape=cube;size=10;direction=south;fontStyle=4;html=1;whiteSpace=wrap;movable=1;resizable=1;rotatable=1;deletable=1;editable=1;locked=0;connectable=1;container=0;fillColor=#907EA3;strokeColor=#000000;fillStyle=solid;" vertex="1" parent="1">
          <mxGeometry x="1457.87" y="1887.5" width="40" height="40" as="geometry" />
        </mxCell>
        <mxCell id="kQ3vYmZmV89KcB6vO9J0-504" value="" style="verticalAlign=top;align=left;spacingTop=8;spacingLeft=2;spacingRight=12;shape=cube;size=10;direction=south;fontStyle=4;html=1;whiteSpace=wrap;movable=1;resizable=1;rotatable=1;deletable=1;editable=1;locked=0;connectable=1;container=0;fillColor=#907EA3;strokeColor=#000000;fillStyle=solid;" vertex="1" parent="1">
          <mxGeometry x="1487.87" y="1887.5" width="40" height="40" as="geometry" />
        </mxCell>
        <mxCell id="kQ3vYmZmV89KcB6vO9J0-505" style="edgeStyle=none;curved=1;rounded=0;orthogonalLoop=1;jettySize=auto;html=1;fontSize=12;startSize=8;endSize=8;strokeWidth=3;" edge="1" parent="1">
          <mxGeometry relative="1" as="geometry">
            <mxPoint x="1389.37" y="1758" as="targetPoint" />
            <mxPoint x="1389.37" y="1828" as="sourcePoint" />
          </mxGeometry>
        </mxCell>
        <mxCell id="kQ3vYmZmV89KcB6vO9J0-509" value="" style="verticalAlign=top;align=left;spacingTop=8;spacingLeft=2;spacingRight=12;shape=cube;size=10;direction=south;fontStyle=4;html=1;whiteSpace=wrap;movable=1;resizable=1;rotatable=1;deletable=1;editable=1;locked=0;connectable=1;container=0;fillColor=#4C9B9B;strokeColor=#000000;" vertex="1" parent="1">
          <mxGeometry x="1427.87" y="1767.5" width="40" height="40" as="geometry" />
        </mxCell>
        <mxCell id="kQ3vYmZmV89KcB6vO9J0-510" value="" style="verticalAlign=top;align=left;spacingTop=8;spacingLeft=2;spacingRight=12;shape=cube;size=10;direction=south;fontStyle=4;html=1;whiteSpace=wrap;movable=1;resizable=1;rotatable=1;deletable=1;editable=1;locked=0;connectable=1;container=0;fillColor=#4C9B9B;strokeColor=#000000;" vertex="1" parent="1">
          <mxGeometry x="1457.87" y="1767.5" width="40" height="40" as="geometry" />
        </mxCell>
        <mxCell id="kQ3vYmZmV89KcB6vO9J0-511" value="" style="verticalAlign=top;align=left;spacingTop=8;spacingLeft=2;spacingRight=12;shape=cube;size=10;direction=south;fontStyle=4;html=1;whiteSpace=wrap;movable=1;resizable=1;rotatable=1;deletable=1;editable=1;locked=0;connectable=1;container=0;fillColor=#4C9B9B;strokeColor=#000000;" vertex="1" parent="1">
          <mxGeometry x="1487.87" y="1767.5" width="40" height="40" as="geometry" />
        </mxCell>
        <mxCell id="kQ3vYmZmV89KcB6vO9J0-506" value="" style="verticalAlign=top;align=left;spacingTop=8;spacingLeft=2;spacingRight=12;shape=cube;size=10;direction=south;fontStyle=4;html=1;whiteSpace=wrap;movable=1;resizable=1;rotatable=1;deletable=1;editable=1;locked=0;connectable=1;container=0;fillColor=#907EA3;strokeColor=#000000;fillStyle=solid;" vertex="1" parent="1">
          <mxGeometry x="1417.87" y="1777.5" width="40" height="40" as="geometry" />
        </mxCell>
        <mxCell id="kQ3vYmZmV89KcB6vO9J0-507" value="" style="verticalAlign=top;align=left;spacingTop=8;spacingLeft=2;spacingRight=12;shape=cube;size=10;direction=south;fontStyle=4;html=1;whiteSpace=wrap;movable=1;resizable=1;rotatable=1;deletable=1;editable=1;locked=0;connectable=1;container=0;fillColor=#907EA3;strokeColor=#000000;fillStyle=solid;" vertex="1" parent="1">
          <mxGeometry x="1447.87" y="1777.5" width="40" height="40" as="geometry" />
        </mxCell>
        <mxCell id="kQ3vYmZmV89KcB6vO9J0-508" value="" style="verticalAlign=top;align=left;spacingTop=8;spacingLeft=2;spacingRight=12;shape=cube;size=10;direction=south;fontStyle=4;html=1;whiteSpace=wrap;movable=1;resizable=1;rotatable=1;deletable=1;editable=1;locked=0;connectable=1;container=0;fillColor=#907EA3;strokeColor=#000000;fillStyle=solid;" vertex="1" parent="1">
          <mxGeometry x="1477.87" y="1777.5" width="40" height="40" as="geometry" />
        </mxCell>
        <mxCell id="kQ3vYmZmV89KcB6vO9J0-519" value="" style="endArrow=none;html=1;strokeWidth=2;rounded=0;fontSize=12;startSize=8;endSize=8;curved=1;entryX=1;entryY=1;entryDx=0;entryDy=0;exitX=0;exitY=1;exitDx=0;exitDy=0;dashed=1;" edge="1" parent="1" source="kQ3vYmZmV89KcB6vO9J0-1" target="digXNZdUGkVrMZ4BqyaZ-743">
          <mxGeometry width="50" height="50" relative="1" as="geometry">
            <mxPoint x="939" y="1803" as="sourcePoint" />
            <mxPoint x="989" y="1753" as="targetPoint" />
          </mxGeometry>
        </mxCell>
        <mxCell id="kQ3vYmZmV89KcB6vO9J0-520" value="" style="endArrow=none;html=1;strokeWidth=2;rounded=0;fontSize=12;startSize=8;endSize=8;curved=1;entryX=1;entryY=0;entryDx=0;entryDy=0;exitX=0;exitY=0;exitDx=0;exitDy=0;dashed=1;" edge="1" parent="1" source="kQ3vYmZmV89KcB6vO9J0-1" target="digXNZdUGkVrMZ4BqyaZ-743">
          <mxGeometry width="50" height="50" relative="1" as="geometry">
            <mxPoint x="679" y="1803" as="sourcePoint" />
            <mxPoint x="729" y="1753" as="targetPoint" />
          </mxGeometry>
        </mxCell>
        <mxCell id="kQ3vYmZmV89KcB6vO9J0-521" value="" style="endArrow=none;html=1;strokeWidth=2;rounded=0;fontSize=12;startSize=8;endSize=8;curved=1;entryX=1;entryY=0;entryDx=0;entryDy=0;exitX=0;exitY=0;exitDx=0;exitDy=0;dashed=1;" edge="1" parent="1" source="kQ3vYmZmV89KcB6vO9J0-54" target="kQ3vYmZmV89KcB6vO9J0-388">
          <mxGeometry width="50" height="50" relative="1" as="geometry">
            <mxPoint x="739" y="2003" as="sourcePoint" />
            <mxPoint x="679" y="2143" as="targetPoint" />
          </mxGeometry>
        </mxCell>
        <mxCell id="kQ3vYmZmV89KcB6vO9J0-522" value="" style="endArrow=none;html=1;strokeWidth=2;rounded=0;fontSize=12;startSize=8;endSize=8;curved=1;entryX=1;entryY=1;entryDx=0;entryDy=0;exitX=0;exitY=1;exitDx=0;exitDy=0;dashed=1;" edge="1" parent="1" source="kQ3vYmZmV89KcB6vO9J0-54" target="kQ3vYmZmV89KcB6vO9J0-388">
          <mxGeometry width="50" height="50" relative="1" as="geometry">
            <mxPoint x="819" y="1933" as="sourcePoint" />
            <mxPoint x="759" y="1933" as="targetPoint" />
          </mxGeometry>
        </mxCell>
        <mxCell id="kQ3vYmZmV89KcB6vO9J0-523" value="" style="endArrow=none;html=1;strokeWidth=2;rounded=0;fontSize=12;startSize=8;endSize=8;curved=1;entryX=1;entryY=0;entryDx=0;entryDy=0;exitX=-0.005;exitY=0.547;exitDx=0;exitDy=0;exitPerimeter=0;dashed=1;" edge="1" parent="1" source="kQ3vYmZmV89KcB6vO9J0-382" target="kQ3vYmZmV89KcB6vO9J0-57">
          <mxGeometry width="50" height="50" relative="1" as="geometry">
            <mxPoint x="1318" y="2024" as="sourcePoint" />
            <mxPoint x="1199" y="2013" as="targetPoint" />
          </mxGeometry>
        </mxCell>
        <mxCell id="kQ3vYmZmV89KcB6vO9J0-524" value="" style="endArrow=none;html=1;strokeWidth=2;rounded=0;fontSize=12;startSize=8;endSize=8;curved=1;entryX=1;entryY=1;entryDx=0;entryDy=0;exitX=0;exitY=1;exitDx=0;exitDy=0;dashed=1;" edge="1" parent="1" source="kQ3vYmZmV89KcB6vO9J0-382" target="kQ3vYmZmV89KcB6vO9J0-57">
          <mxGeometry width="50" height="50" relative="1" as="geometry">
            <mxPoint x="1310" y="2023" as="sourcePoint" />
            <mxPoint x="1069" y="2305" as="targetPoint" />
          </mxGeometry>
        </mxCell>
        <mxCell id="kQ3vYmZmV89KcB6vO9J0-525" value="" style="endArrow=none;html=1;strokeWidth=2;rounded=0;fontSize=12;startSize=8;endSize=8;curved=1;entryX=1;entryY=0;entryDx=0;entryDy=0;exitX=0;exitY=0;exitDx=0;exitDy=0;dashed=1;" edge="1" parent="1" source="kQ3vYmZmV89KcB6vO9J0-165" target="kQ3vYmZmV89KcB6vO9J0-28">
          <mxGeometry width="50" height="50" relative="1" as="geometry">
            <mxPoint x="1428" y="1973" as="sourcePoint" />
            <mxPoint x="1189" y="2003" as="targetPoint" />
          </mxGeometry>
        </mxCell>
        <mxCell id="kQ3vYmZmV89KcB6vO9J0-526" value="" style="endArrow=none;html=1;strokeWidth=2;rounded=0;fontSize=12;startSize=8;endSize=8;curved=1;entryX=1;entryY=1;entryDx=0;entryDy=0;exitX=0;exitY=1;exitDx=0;exitDy=0;dashed=1;" edge="1" parent="1" source="kQ3vYmZmV89KcB6vO9J0-165" target="kQ3vYmZmV89KcB6vO9J0-28">
          <mxGeometry width="50" height="50" relative="1" as="geometry">
            <mxPoint x="1488" y="2003" as="sourcePoint" />
            <mxPoint x="1249" y="2033" as="targetPoint" />
          </mxGeometry>
        </mxCell>
        <mxCell id="kQ3vYmZmV89KcB6vO9J0-527" value="" style="endArrow=none;dashed=1;html=1;strokeWidth=2;rounded=0;fontSize=12;startSize=8;endSize=8;curved=1;entryX=1;entryY=0;entryDx=0;entryDy=0;exitX=0;exitY=0;exitDx=0;exitDy=0;strokeColor=default;" edge="1" parent="1" source="kQ3vYmZmV89KcB6vO9J0-347" target="kQ3vYmZmV89KcB6vO9J0-50">
          <mxGeometry width="50" height="50" relative="1" as="geometry">
            <mxPoint x="1348" y="1293" as="sourcePoint" />
            <mxPoint x="1109" y="1323" as="targetPoint" />
          </mxGeometry>
        </mxCell>
        <mxCell id="kQ3vYmZmV89KcB6vO9J0-528" value="" style="endArrow=none;dashed=1;html=1;strokeWidth=2;rounded=0;fontSize=12;startSize=8;endSize=8;curved=1;entryX=1;entryY=1;entryDx=0;entryDy=0;exitX=0;exitY=1;exitDx=0;exitDy=0;" edge="1" parent="1" source="kQ3vYmZmV89KcB6vO9J0-347" target="kQ3vYmZmV89KcB6vO9J0-50">
          <mxGeometry width="50" height="50" relative="1" as="geometry">
            <mxPoint x="1339" y="1383" as="sourcePoint" />
            <mxPoint x="1149" y="1452" as="targetPoint" />
          </mxGeometry>
        </mxCell>
        <mxCell id="cygXK7KWx0IJy174ZTwy-1" value="" style="endArrow=classic;html=1;rounded=0;fontSize=12;startSize=8;endSize=8;curved=1;dashed=1;strokeWidth=2;" edge="1" parent="1">
          <mxGeometry width="50" height="50" relative="1" as="geometry">
            <mxPoint x="80" y="1520" as="sourcePoint" />
            <mxPoint x="170" y="1520" as="targetPoint" />
          </mxGeometry>
        </mxCell>
        <mxCell id="cygXK7KWx0IJy174ZTwy-2" value="" style="endArrow=none;html=1;rounded=0;fontSize=12;startSize=8;endSize=8;curved=1;dashed=1;strokeWidth=2;" edge="1" parent="1">
          <mxGeometry width="50" height="50" relative="1" as="geometry">
            <mxPoint x="80" y="1850" as="sourcePoint" />
            <mxPoint x="80" y="1520" as="targetPoint" />
          </mxGeometry>
        </mxCell>
        <mxCell id="Fy1TBL1NCzo2nrhahn_K-3" value="" style="whiteSpace=wrap;html=1;aspect=fixed;fillColor=#907EA3;strokeColor=#000000;" vertex="1" parent="1">
          <mxGeometry x="1530" y="1998" width="20" height="20" as="geometry" />
        </mxCell>
        <mxCell id="Fy1TBL1NCzo2nrhahn_K-4" value="" style="whiteSpace=wrap;html=1;aspect=fixed;fillColor=#907EA3;strokeColor=#000000;" vertex="1" parent="1">
          <mxGeometry x="1550" y="1998" width="20" height="20" as="geometry" />
        </mxCell>
        <mxCell id="Fy1TBL1NCzo2nrhahn_K-5" value="" style="whiteSpace=wrap;html=1;aspect=fixed;fillColor=#4C9B9B;strokeColor=#000000;" vertex="1" parent="1">
          <mxGeometry x="1510" y="2118" width="20" height="20" as="geometry" />
        </mxCell>
        <mxCell id="Fy1TBL1NCzo2nrhahn_K-6" value="" style="whiteSpace=wrap;html=1;aspect=fixed;fillColor=#4C9B9B;strokeColor=#000000;" vertex="1" parent="1">
          <mxGeometry x="1530" y="2118" width="20" height="20" as="geometry" />
        </mxCell>
        <mxCell id="Fy1TBL1NCzo2nrhahn_K-7" value="" style="whiteSpace=wrap;html=1;aspect=fixed;fillColor=#4C9B9B;strokeColor=#000000;" vertex="1" parent="1">
          <mxGeometry x="1550" y="2118" width="20" height="20" as="geometry" />
        </mxCell>
        <mxCell id="Fy1TBL1NCzo2nrhahn_K-8" value="" style="edgeStyle=none;curved=1;rounded=0;orthogonalLoop=1;jettySize=auto;html=1;fontSize=12;startSize=8;endSize=8;" edge="1" parent="1">
          <mxGeometry relative="1" as="geometry">
            <mxPoint x="1534.13" y="1583" as="sourcePoint" />
            <mxPoint x="1534.13" y="1563" as="targetPoint" />
            <Array as="points">
              <mxPoint x="1534.13" y="1563" />
            </Array>
          </mxGeometry>
        </mxCell>
        <mxCell id="Fy1TBL1NCzo2nrhahn_K-9" value="" style="edgeStyle=none;curved=1;rounded=0;orthogonalLoop=1;jettySize=auto;html=1;fontSize=12;startSize=8;endSize=8;" edge="1" parent="1">
          <mxGeometry relative="1" as="geometry">
            <mxPoint x="1564" y="1583" as="sourcePoint" />
            <mxPoint x="1564" y="1563" as="targetPoint" />
            <Array as="points">
              <mxPoint x="1564" y="1564" />
            </Array>
          </mxGeometry>
        </mxCell>
        <mxCell id="kQ3vYmZmV89KcB6vO9J0-110" value="Self Attention" style="verticalAlign=middle;align=center;spacingTop=8;spacingLeft=2;spacingRight=12;shape=cube;size=10;direction=south;fontStyle=2;whiteSpace=wrap;movable=1;resizable=1;rotatable=1;deletable=1;editable=1;locked=0;connectable=1;container=0;fillStyle=solid;fontFamily=Tahoma;textDirection=ltr;fontSize=24;" vertex="1" parent="1">
          <mxGeometry x="1460" y="1583" width="160" height="60" as="geometry" />
        </mxCell>
        <mxCell id="TspQhhSWkz_dYGsbGz9h-4" value="" style="group" connectable="0" vertex="1" parent="1">
          <mxGeometry x="1172" y="1663" width="100" height="40" as="geometry" />
        </mxCell>
        <mxCell id="TspQhhSWkz_dYGsbGz9h-5" value="" style="verticalAlign=top;align=left;spacingTop=8;spacingLeft=2;spacingRight=12;shape=cube;size=10;direction=south;fontStyle=4;html=1;whiteSpace=wrap;movable=1;resizable=1;rotatable=1;deletable=1;editable=1;locked=0;connectable=1;container=0;fillColor=#999C7E;strokeColor=#000000;" vertex="1" parent="TspQhhSWkz_dYGsbGz9h-4">
          <mxGeometry width="40" height="40" as="geometry" />
        </mxCell>
        <mxCell id="TspQhhSWkz_dYGsbGz9h-6" value="" style="verticalAlign=top;align=left;spacingTop=8;spacingLeft=2;spacingRight=12;shape=cube;size=10;direction=south;fontStyle=4;html=1;whiteSpace=wrap;movable=1;resizable=1;rotatable=1;deletable=1;editable=1;locked=0;connectable=1;container=0;fillColor=#907EA3;strokeColor=#000000;fillStyle=solid;" vertex="1" parent="TspQhhSWkz_dYGsbGz9h-4">
          <mxGeometry x="30" width="40" height="40" as="geometry" />
        </mxCell>
        <mxCell id="TspQhhSWkz_dYGsbGz9h-7" value="" style="verticalAlign=top;align=left;spacingTop=8;spacingLeft=2;spacingRight=12;shape=cube;size=10;direction=south;fontStyle=4;html=1;whiteSpace=wrap;movable=1;resizable=1;rotatable=1;deletable=1;editable=1;locked=0;connectable=1;container=0;fillColor=#4C9B9B;strokeColor=#000000;" vertex="1" parent="TspQhhSWkz_dYGsbGz9h-4">
          <mxGeometry x="60" width="40" height="40" as="geometry" />
        </mxCell>
        <mxCell id="kQ3vYmZmV89KcB6vO9J0-133" value="" style="verticalAlign=top;align=left;spacingTop=8;spacingLeft=2;spacingRight=12;shape=cube;size=10;direction=south;fontStyle=4;html=1;whiteSpace=wrap;movable=1;resizable=1;rotatable=1;deletable=1;editable=1;locked=0;connectable=1;container=0;fillColor=#999C7E;strokeColor=#000000;" vertex="1" parent="1">
          <mxGeometry x="1173.37" y="1523" width="40" height="40" as="geometry" />
        </mxCell>
        <mxCell id="TspQhhSWkz_dYGsbGz9h-1" value="" style="verticalAlign=top;align=left;spacingTop=8;spacingLeft=2;spacingRight=12;shape=cube;size=10;direction=south;fontStyle=4;html=1;whiteSpace=wrap;movable=1;resizable=1;rotatable=1;deletable=1;editable=1;locked=0;connectable=1;container=0;fillColor=#907EA3;strokeColor=#000000;fillStyle=solid;" vertex="1" parent="1">
          <mxGeometry x="1203.37" y="1523" width="40" height="40" as="geometry" />
        </mxCell>
        <mxCell id="TspQhhSWkz_dYGsbGz9h-2" value="" style="verticalAlign=top;align=left;spacingTop=8;spacingLeft=2;spacingRight=12;shape=cube;size=10;direction=south;fontStyle=4;html=1;whiteSpace=wrap;movable=1;resizable=1;rotatable=1;deletable=1;editable=1;locked=0;connectable=1;container=0;fillColor=#4C9B9B;strokeColor=#000000;" vertex="1" parent="1">
          <mxGeometry x="1233.37" y="1523" width="40" height="40" as="geometry" />
        </mxCell>
        <mxCell id="TspQhhSWkz_dYGsbGz9h-9" value="" style="verticalAlign=top;align=left;spacingTop=8;spacingLeft=2;spacingRight=12;shape=cube;size=10;direction=south;fontStyle=4;html=1;whiteSpace=wrap;movable=1;resizable=1;rotatable=1;deletable=1;editable=1;locked=0;connectable=1;container=0;fillColor=#999C7E;strokeColor=#000000;" vertex="1" parent="1">
          <mxGeometry x="1333.37" y="1523" width="40" height="40" as="geometry" />
        </mxCell>
        <mxCell id="TspQhhSWkz_dYGsbGz9h-10" value="" style="verticalAlign=top;align=left;spacingTop=8;spacingLeft=2;spacingRight=12;shape=cube;size=10;direction=south;fontStyle=4;html=1;whiteSpace=wrap;movable=1;resizable=1;rotatable=1;deletable=1;editable=1;locked=0;connectable=1;container=0;fillColor=#907EA3;strokeColor=#000000;fillStyle=solid;" vertex="1" parent="1">
          <mxGeometry x="1363.37" y="1523" width="40" height="40" as="geometry" />
        </mxCell>
        <mxCell id="TspQhhSWkz_dYGsbGz9h-11" value="" style="verticalAlign=top;align=left;spacingTop=8;spacingLeft=2;spacingRight=12;shape=cube;size=10;direction=south;fontStyle=4;html=1;whiteSpace=wrap;movable=1;resizable=1;rotatable=1;deletable=1;editable=1;locked=0;connectable=1;container=0;fillColor=#4C9B9B;strokeColor=#000000;" vertex="1" parent="1">
          <mxGeometry x="1393.37" y="1523" width="40" height="40" as="geometry" />
        </mxCell>
        <mxCell id="TspQhhSWkz_dYGsbGz9h-12" value="" style="group" connectable="0" vertex="1" parent="1">
          <mxGeometry x="1328" y="1663" width="100" height="40" as="geometry" />
        </mxCell>
        <mxCell id="TspQhhSWkz_dYGsbGz9h-13" value="" style="verticalAlign=top;align=left;spacingTop=8;spacingLeft=2;spacingRight=12;shape=cube;size=10;direction=south;fontStyle=4;html=1;whiteSpace=wrap;movable=1;resizable=1;rotatable=1;deletable=1;editable=1;locked=0;connectable=1;container=0;fillColor=#999C7E;strokeColor=#000000;" vertex="1" parent="TspQhhSWkz_dYGsbGz9h-12">
          <mxGeometry width="40" height="40" as="geometry" />
        </mxCell>
        <mxCell id="TspQhhSWkz_dYGsbGz9h-14" value="" style="verticalAlign=top;align=left;spacingTop=8;spacingLeft=2;spacingRight=12;shape=cube;size=10;direction=south;fontStyle=4;html=1;whiteSpace=wrap;movable=1;resizable=1;rotatable=1;deletable=1;editable=1;locked=0;connectable=1;container=0;fillColor=#907EA3;strokeColor=#000000;fillStyle=solid;" vertex="1" parent="TspQhhSWkz_dYGsbGz9h-12">
          <mxGeometry x="30" width="40" height="40" as="geometry" />
        </mxCell>
        <mxCell id="TspQhhSWkz_dYGsbGz9h-15" value="" style="verticalAlign=top;align=left;spacingTop=8;spacingLeft=2;spacingRight=12;shape=cube;size=10;direction=south;fontStyle=4;html=1;whiteSpace=wrap;movable=1;resizable=1;rotatable=1;deletable=1;editable=1;locked=0;connectable=1;container=0;fillColor=#4C9B9B;strokeColor=#000000;" vertex="1" parent="TspQhhSWkz_dYGsbGz9h-12">
          <mxGeometry x="60" width="40" height="40" as="geometry" />
        </mxCell>
        <mxCell id="TspQhhSWkz_dYGsbGz9h-16" value="" style="group" connectable="0" vertex="1" parent="1">
          <mxGeometry x="1479" y="1663" width="100" height="40" as="geometry" />
        </mxCell>
        <mxCell id="TspQhhSWkz_dYGsbGz9h-17" value="" style="verticalAlign=top;align=left;spacingTop=8;spacingLeft=2;spacingRight=12;shape=cube;size=10;direction=south;fontStyle=4;html=1;whiteSpace=wrap;movable=1;resizable=1;rotatable=1;deletable=1;editable=1;locked=0;connectable=1;container=0;fillColor=#999C7E;strokeColor=#000000;" vertex="1" parent="TspQhhSWkz_dYGsbGz9h-16">
          <mxGeometry width="40" height="40" as="geometry" />
        </mxCell>
        <mxCell id="TspQhhSWkz_dYGsbGz9h-18" value="" style="verticalAlign=top;align=left;spacingTop=8;spacingLeft=2;spacingRight=12;shape=cube;size=10;direction=south;fontStyle=4;html=1;whiteSpace=wrap;movable=1;resizable=1;rotatable=1;deletable=1;editable=1;locked=0;connectable=1;container=0;fillColor=#907EA3;strokeColor=#000000;fillStyle=solid;" vertex="1" parent="TspQhhSWkz_dYGsbGz9h-16">
          <mxGeometry x="30" width="40" height="40" as="geometry" />
        </mxCell>
        <mxCell id="TspQhhSWkz_dYGsbGz9h-19" value="" style="verticalAlign=top;align=left;spacingTop=8;spacingLeft=2;spacingRight=12;shape=cube;size=10;direction=south;fontStyle=4;html=1;whiteSpace=wrap;movable=1;resizable=1;rotatable=1;deletable=1;editable=1;locked=0;connectable=1;container=0;fillColor=#4C9B9B;strokeColor=#000000;" vertex="1" parent="TspQhhSWkz_dYGsbGz9h-16">
          <mxGeometry x="60" width="40" height="40" as="geometry" />
        </mxCell>
        <mxCell id="TspQhhSWkz_dYGsbGz9h-20" value="" style="group" connectable="0" vertex="1" parent="1">
          <mxGeometry x="1486" y="1523" width="100" height="40" as="geometry" />
        </mxCell>
        <mxCell id="TspQhhSWkz_dYGsbGz9h-21" value="" style="verticalAlign=top;align=left;spacingTop=8;spacingLeft=2;spacingRight=12;shape=cube;size=10;direction=south;fontStyle=4;html=1;whiteSpace=wrap;movable=1;resizable=1;rotatable=1;deletable=1;editable=1;locked=0;connectable=1;container=0;fillColor=#999C7E;strokeColor=#000000;" vertex="1" parent="TspQhhSWkz_dYGsbGz9h-20">
          <mxGeometry width="40" height="40" as="geometry" />
        </mxCell>
        <mxCell id="TspQhhSWkz_dYGsbGz9h-22" value="" style="verticalAlign=top;align=left;spacingTop=8;spacingLeft=2;spacingRight=12;shape=cube;size=10;direction=south;fontStyle=4;html=1;whiteSpace=wrap;movable=1;resizable=1;rotatable=1;deletable=1;editable=1;locked=0;connectable=1;container=0;fillColor=#907EA3;strokeColor=#000000;fillStyle=solid;" vertex="1" parent="TspQhhSWkz_dYGsbGz9h-20">
          <mxGeometry x="30" width="40" height="40" as="geometry" />
        </mxCell>
        <mxCell id="TspQhhSWkz_dYGsbGz9h-23" value="" style="verticalAlign=top;align=left;spacingTop=8;spacingLeft=2;spacingRight=12;shape=cube;size=10;direction=south;fontStyle=4;html=1;whiteSpace=wrap;movable=1;resizable=1;rotatable=1;deletable=1;editable=1;locked=0;connectable=1;container=0;fillColor=#4C9B9B;strokeColor=#000000;" vertex="1" parent="TspQhhSWkz_dYGsbGz9h-20">
          <mxGeometry x="60" width="40" height="40" as="geometry" />
        </mxCell>
        <mxCell id="6b321hq8fRBAHLbLfV9u-3" value="&lt;font style=&quot;font-size: 24px;&quot; face=&quot;Tahoma&quot;&gt;&lt;i&gt;Dual-Path&amp;nbsp;&lt;/i&gt;&lt;/font&gt;&lt;div&gt;&lt;span style=&quot;font-size: 24px; font-family: Tahoma; background-color: transparent; color: light-dark(rgb(0, 0, 0), rgb(255, 255, 255));&quot;&gt;&lt;i&gt;Transformer&lt;/i&gt;&lt;/span&gt;&lt;/div&gt;" style="text;whiteSpace=wrap;html=1;align=center;verticalAlign=middle;" vertex="1" parent="1">
          <mxGeometry x="555" y="1414" width="130" height="65" as="geometry" />
        </mxCell>
        <mxCell id="6b321hq8fRBAHLbLfV9u-5" style="edgeStyle=none;curved=1;rounded=0;orthogonalLoop=1;jettySize=auto;html=1;fontSize=12;startSize=8;endSize=8;strokeWidth=5;exitX=0.5;exitY=0;exitDx=0;exitDy=0;" edge="1" parent="1">
          <mxGeometry relative="1" as="geometry">
            <mxPoint x="880" y="1463" as="sourcePoint" />
            <mxPoint x="880" y="1385" as="targetPoint" />
          </mxGeometry>
        </mxCell>
        <mxCell id="6b321hq8fRBAHLbLfV9u-6" style="edgeStyle=none;curved=1;rounded=0;orthogonalLoop=1;jettySize=auto;html=1;fontSize=12;startSize=8;endSize=8;strokeWidth=5;exitX=0.5;exitY=0;exitDx=0;exitDy=0;" edge="1" parent="1">
          <mxGeometry relative="1" as="geometry">
            <mxPoint x="800" y="1462" as="sourcePoint" />
            <mxPoint x="800" y="1385" as="targetPoint" />
          </mxGeometry>
        </mxCell>
        <mxCell id="_7qJNDpoc1-1CK7Cyzjp-5" value="" style="verticalAlign=top;align=left;spacingTop=8;spacingLeft=2;spacingRight=12;shape=cube;size=10;direction=south;fontStyle=4;html=1;whiteSpace=wrap;movable=1;resizable=1;rotatable=1;deletable=1;editable=1;locked=0;connectable=1;container=0;fillColor=#907EA3;strokeColor=#000000;fillStyle=solid;" vertex="1" parent="1">
          <mxGeometry x="149.23000000000002" y="1946" width="40" height="40" as="geometry" />
        </mxCell>
        <mxCell id="_7qJNDpoc1-1CK7Cyzjp-6" value="" style="verticalAlign=top;align=left;spacingTop=8;spacingLeft=2;spacingRight=12;shape=cube;size=10;direction=south;fontStyle=4;html=1;whiteSpace=wrap;movable=1;resizable=1;rotatable=1;deletable=1;editable=1;locked=0;connectable=1;container=0;fillColor=#907EA3;strokeColor=#000000;fillStyle=solid;" vertex="1" parent="1">
          <mxGeometry x="179.23000000000002" y="1946" width="40" height="40" as="geometry" />
        </mxCell>
        <mxCell id="_7qJNDpoc1-1CK7Cyzjp-7" value="" style="verticalAlign=top;align=left;spacingTop=8;spacingLeft=2;spacingRight=12;shape=cube;size=10;direction=south;fontStyle=4;html=1;whiteSpace=wrap;movable=1;resizable=1;rotatable=1;deletable=1;editable=1;locked=0;connectable=1;container=0;fillColor=#907EA3;strokeColor=#000000;fillStyle=solid;" vertex="1" parent="1">
          <mxGeometry x="209.23000000000002" y="1946" width="40" height="40" as="geometry" />
        </mxCell>
        <mxCell id="_7qJNDpoc1-1CK7Cyzjp-8" value="" style="verticalAlign=top;align=left;spacingTop=8;spacingLeft=2;spacingRight=12;shape=cube;size=10;direction=south;fontStyle=4;html=1;whiteSpace=wrap;movable=1;resizable=1;rotatable=1;deletable=1;editable=1;locked=0;connectable=1;container=0;fillColor=#907EA3;strokeColor=#000000;fillStyle=solid;" vertex="1" parent="1">
          <mxGeometry x="149.23000000000002" y="1791" width="40" height="40" as="geometry" />
        </mxCell>
        <mxCell id="_7qJNDpoc1-1CK7Cyzjp-9" value="" style="verticalAlign=top;align=left;spacingTop=8;spacingLeft=2;spacingRight=12;shape=cube;size=10;direction=south;fontStyle=4;html=1;whiteSpace=wrap;movable=1;resizable=1;rotatable=1;deletable=1;editable=1;locked=0;connectable=1;container=0;fillColor=#907EA3;strokeColor=#000000;fillStyle=solid;" vertex="1" parent="1">
          <mxGeometry x="179.23000000000002" y="1791" width="40" height="40" as="geometry" />
        </mxCell>
        <mxCell id="_7qJNDpoc1-1CK7Cyzjp-10" value="" style="verticalAlign=top;align=left;spacingTop=8;spacingLeft=2;spacingRight=12;shape=cube;size=10;direction=south;fontStyle=4;html=1;whiteSpace=wrap;movable=1;resizable=1;rotatable=1;deletable=1;editable=1;locked=0;connectable=1;container=0;fillColor=#907EA3;strokeColor=#000000;fillStyle=solid;" vertex="1" parent="1">
          <mxGeometry x="209.23000000000002" y="1791" width="40" height="40" as="geometry" />
        </mxCell>
        <mxCell id="_7qJNDpoc1-1CK7Cyzjp-11" value="" style="verticalAlign=top;align=left;spacingTop=8;spacingLeft=2;spacingRight=12;shape=cube;size=10;direction=south;fontStyle=4;html=1;whiteSpace=wrap;movable=1;resizable=1;rotatable=1;deletable=1;editable=1;locked=0;connectable=1;container=0;fillColor=#4C9B9B;strokeColor=#000000;" vertex="1" parent="1">
          <mxGeometry x="387" y="1791" width="40" height="40" as="geometry" />
        </mxCell>
        <mxCell id="_7qJNDpoc1-1CK7Cyzjp-12" value="" style="verticalAlign=top;align=left;spacingTop=8;spacingLeft=2;spacingRight=12;shape=cube;size=10;direction=south;fontStyle=4;html=1;whiteSpace=wrap;movable=1;resizable=1;rotatable=1;deletable=1;editable=1;locked=0;connectable=1;container=0;fillColor=#4C9B9B;strokeColor=#000000;" vertex="1" parent="1">
          <mxGeometry x="417" y="1791" width="40" height="40" as="geometry" />
        </mxCell>
        <mxCell id="_7qJNDpoc1-1CK7Cyzjp-13" value="" style="verticalAlign=top;align=left;spacingTop=8;spacingLeft=2;spacingRight=12;shape=cube;size=10;direction=south;fontStyle=4;html=1;whiteSpace=wrap;movable=1;resizable=1;rotatable=1;deletable=1;editable=1;locked=0;connectable=1;container=0;fillColor=#4C9B9B;strokeColor=#000000;" vertex="1" parent="1">
          <mxGeometry x="447" y="1791" width="40" height="40" as="geometry" />
        </mxCell>
        <mxCell id="_7qJNDpoc1-1CK7Cyzjp-14" value="" style="verticalAlign=top;align=left;spacingTop=8;spacingLeft=2;spacingRight=12;shape=cube;size=10;direction=south;fontStyle=4;html=1;whiteSpace=wrap;movable=1;resizable=1;rotatable=1;deletable=1;editable=1;locked=0;connectable=1;container=0;fillColor=#4C9B9B;strokeColor=#000000;" vertex="1" parent="1">
          <mxGeometry x="387" y="1946" width="40" height="40" as="geometry" />
        </mxCell>
        <mxCell id="_7qJNDpoc1-1CK7Cyzjp-15" value="" style="verticalAlign=top;align=left;spacingTop=8;spacingLeft=2;spacingRight=12;shape=cube;size=10;direction=south;fontStyle=4;html=1;whiteSpace=wrap;movable=1;resizable=1;rotatable=1;deletable=1;editable=1;locked=0;connectable=1;container=0;fillColor=#4C9B9B;strokeColor=#000000;" vertex="1" parent="1">
          <mxGeometry x="417" y="1946" width="40" height="40" as="geometry" />
        </mxCell>
        <mxCell id="_7qJNDpoc1-1CK7Cyzjp-16" value="" style="verticalAlign=top;align=left;spacingTop=8;spacingLeft=2;spacingRight=12;shape=cube;size=10;direction=south;fontStyle=4;html=1;whiteSpace=wrap;movable=1;resizable=1;rotatable=1;deletable=1;editable=1;locked=0;connectable=1;container=0;fillColor=#4C9B9B;strokeColor=#000000;" vertex="1" parent="1">
          <mxGeometry x="447" y="1946" width="40" height="40" as="geometry" />
        </mxCell>
      </root>
    </mxGraphModel>
  </diagram>
</mxfile>
